<?xml version="1.0" encoding="utf-8"?>
<!-- Generator: Adobe Illustrator 22.1.0, SVG Export Plug-In . SVG Version: 6.00 Build 0)  -->
<svg version="1.1" id="about_txt1.svg" xmlns="http://www.w3.org/2000/svg" xmlns:xlink="http://www.w3.org/1999/xlink" x="0px"
	 y="0px" viewBox="0 0 837.1 186.4" style="enable-background:new 0 0 837.1 186.4;" xml:space="preserve">
<style type="text/css">
	.st0{fill:#E60012;}
</style>
<path id="tete" d="M176.4,165.5c-4.2,1-6.7,1.4-11.7,2.3c2.6-2.4,5.3-4.7,8.2-6.9l-1.9-2.8c-4.1,1.2-11,1.2-11.8,1.2
	c-1.6,0-2.8-0.1-3.5-0.1l0.3,4.7c0.6,0,1.2,0,2.2-0.1c0.7-0.1,4-0.4,4.8-0.5c-1.6,2.1-3.4,4-5.6,5.5c-2.3,0.3-5,0.5-7.3,0.6l1.2,5.4
	c3.6-1.2,7.4-2.1,11.2-2.7c-2,1.7-3.2,4.1-3.3,6.8c0,6.2,6.6,6.9,11.4,7.3c0.4-1.6,1-3.1,1.6-4.5c-4.6,0-7.8-0.3-7.8-3.4
	c0-3,4.1-8.2,12.6-8.2L176.4,165.5z M193,157.7c-1.4,3.6-2.6,6.6-4.5,10.7c-0.9,2-5.3,11-7.2,14.2l4.9,2c0.5-1.8,4.1-11.1,7.3-11.1
	c0.7,0,1.2,0.5,1.3,1.2c0,0.1,0,0.2,0,0.3c0,0.8-0.5,4.8-0.5,5.7c0,3,2,4.6,4.8,4.6c2-0.1,4-0.7,5.7-1.8c1.9-1.2,3.6-2.7,5.1-4.3
	c-1.1-1.2-2.2-2.5-3.1-3.8c-2.1,3-5.4,4.9-6.4,4.9c-0.9,0-1.1-0.7-1.1-1.5c0-1,0.1-2,0.4-2.9c0.2-0.8,0.3-1.7,0.3-2.5
	c0-3.1-2.5-3.8-4.4-3.8c-0.9,0-1.9,0.2-2.8,0.4c0.2-0.4,0.4-0.6,0.7-1.1c1.6-3.2,3-5.9,4.1-7.8c0.3,0.1,0.7,0.1,0.7-0.3
	c0-0.3-0.2-0.5-0.5-0.5L193,157.7z M229.8,169c-1.2,1-2,2.5-2.1,4.2c0,0.2,0.1,2.4,0.1,2.6c-0.5,0-1.1-0.1-2-0.1
	c-6.1,0-6.2,4.2-6.2,4.7c0,2.8,2.4,4.9,7.1,4.9c3.5,0,5.4-0.8,6-3.7c1.2,0.7,2.4,1.6,3.5,2.5c0.8-1.3,1.8-2.5,2.8-3.6
	c-2-1.5-4.1-2.7-6.4-3.7c-0.2-1-0.3-2-0.3-2.9c0-1.1,0.4-2.1,1.1-2.9L229.8,169z M228.5,179.9c-0.1,0.8-0.2,1.7-2.2,1.7
	c-1.3,0-2.1-0.4-2.1-1.1c0-0.8,1.1-1.2,1.9-1.2C226.9,179.3,227.7,179.5,228.5,179.9L228.5,179.9z M214.7,167.5
	c0.9,0,3.8-0.1,4.5-0.2c-1.5,4.2-3.6,8.2-6.1,11.8c1.6,0.4,3.1,1,4.5,1.8c1.4-2.1,2.5-4.3,3.5-6.6c1.6-3.7,2.6-6.4,3.1-7.7
	c1.6-0.3,3.2-0.6,4.8-1.1c-0.1-1.5-0.2-3-0.1-4.5c-1.1,0.4-2.1,0.7-3.2,1c0.1-0.4,0.5-1.8,0.6-2c0.1,0,0.6,0,0.6-0.4
	c0-0.2-0.1-0.4-0.6-0.5l-4.7-1.5c-0.3,1.7-0.6,3.4-1.1,5.1c-1.3,0.1-2.2,0.2-3.1,0.2c-1.1,0-2.2-0.1-3.3-0.2L214.7,167.5z
	 M229.5,167.2c2.7,0.8,5.3,2.1,7.5,3.9c0.8-1.3,1.7-2.6,2.7-3.9c-1.4-1.1-3.1-2.3-7.9-3.9L229.5,167.2z M255.2,178.1
	c0.2-0.1,0.4-0.2,0.7-0.3c0.8,1,1.5,2,2.2,3.1c0.9-1,2-1.9,3.2-2.5c-0.8-1.1-1.7-2.1-2.6-3h11.5V159h-12.4v15.4l-2.9,2.2
	c0.1,0.1,0.2,0.2,0.3,0.4l-4.1-0.2v5.2c0,2,0.9,3.3,3.4,3.3h7.5c2.8,0,3.5-3.1,3.8-4.9c-1.4-0.2-2.7-0.8-3.8-1.7
	c0,3.1-1.2,3.1-2.2,3.1h-3c-0.9,0-1.5-0.1-1.5-1.4V178.1L255.2,178.1z M262,168v-1.5h4v1.5H262z M262,172.2v-1.7h4v1.7H262z
	 M262,163.9v-1.5h4v1.5H262z M253.2,170.7c0.5,0.6,1.1,1.2,1.7,1.7c0.6-1.2,1.4-2.3,2.4-3.2c-1.4-1.1-2.6-2.4-3.6-3.8h3.3v-3.6h-3.8
	v-2.2c0.4-0.1,0.7-0.3,0.8-0.7c0-0.2-0.3-0.4-0.5-0.4l-4.2-0.1v3.4h-5.4v3.6h4.2c-1.3,2.7-3.1,5.1-5.4,7.1c1.3,0.5,2.4,1.3,3.3,2.4
	c1.3-1.1,2.4-2.3,3.4-3.7v4.7h3.9L253.2,170.7L253.2,170.7z M246.2,177c-0.7,2.3-1.8,4.4-3.2,6.3c1.4,0.3,2.7,0.8,3.9,1.5
	c1.1-1.4,1.6-2.4,3.1-5.8c0.2,0,0.8,0,0.8-0.4c0-0.2-0.2-0.4-0.4-0.4L246.2,177z M264,178.3c1.7,1.9,3.1,3.9,4.4,6
	c1-1,2.2-1.8,3.5-2.4c-1.3-2.1-2.8-4.1-4.6-5.8L264,178.3z M277.2,159.7c-0.9,3.7-1.4,7.4-1.5,11.2c0,9.3,4.4,12.8,6.1,12.8
	c1.5,0,4.2-2,6.6-7.9c-1.2-0.9-2.3-2-3.1-3.2c-0.8,1.9-2,4.5-2.9,4.5c-0.9,0-2-2.6-2-6.2c0-3.1,0.6-6.1,1.7-9c0.3,0,0.6-0.2,0.6-0.5
	c0,0,0,0,0,0c-0.1-0.3-0.3-0.4-0.6-0.4L277.2,159.7z M292.7,163.8c3.1,4.4,4.8,9.5,5,14.8c1-0.5,3.1-1.5,4.9-2.2
	c-0.6-5.5-2.7-10.7-6.1-15.1L292.7,163.8z M316,158.2c-0.2,2.2-0.5,4.4-0.9,6.6c-1.1,0.2-6.4,1.3-7.7,1.5l1.6,4.8
	c1.5-0.6,3.1-1.1,4.8-1.5c-1.5,4.6-3.9,8.9-7.1,12.6c1.6,0.6,3,1.4,4.4,2.4c2.4-3.2,5.2-7.7,7.6-15.8c1.3-0.1,3.5-0.3,3.5,2.8
	c0,3.7-1,7.1-2,8c-0.5,0.4-1.1,0.6-1.8,0.6c-0.9,0-1.8-0.2-2.6-0.7c0.3,1.3,0.4,2.7,0.5,4c0,0.4,0,0.7-0.1,1.1
	c1,0.2,2.1,0.3,3.2,0.3c1.7,0.1,3.4-0.7,4.4-2.1c1.4-1.9,3-6.2,3-11.1c0-7.3-4.3-7.3-6.9-7.3c0.2-0.8,0.4-1.6,0.8-3.6
	c0.2,0,0.8-0.1,0.8-0.5c-0.1-0.3-0.3-0.5-0.6-0.4L316,158.2z M325.4,163.7c1,1,1.8,2.1,2.5,3.3c0.8,1.3,1.3,2.7,1.6,4.1
	c0,1-1.1,1.2-1.9,1.4c0.7,1.3,1.3,2.6,1.7,4c1-0.2,2-0.5,3-0.9c1.4-0.4,2.2-1.8,2.1-3.2c0-2.4-2.1-7.4-5.4-11.1L325.4,163.7z
	 M344.3,162c3.2,0.7,6.2,1.9,8.9,3.7c0.8-1.5,1.7-3,2.7-4.4c-3.1-1.7-6.5-2.8-10.1-3.3L344.3,162z M342.5,163.4
	c-1.4,4-2.5,8.2-3.1,12.4l4.3,1.6c2.2-2.2,5.3-4.9,9.6-4.9c3.1,0,3.5,2.2,3.5,3.1c0,2.5-2.7,5.1-9.5,5.1c-1.5,0-3-0.1-4.4-0.4
	c0.7,1.6,1.2,3.3,1.4,5c0.6,0,1.3,0.1,2.2,0.1c9.9,0,15.3-3.9,15.3-9.7c0.1-4-3.1-7.3-7.1-7.4c-0.2,0-0.4,0-0.5,0
	c-3.1,0.1-6.2,1.1-8.8,2.8c0.4-1.8,1.1-3.6,2-5.2c0.3,0,0.7-0.1,0.7-0.4c0-0.2-0.2-0.4-0.5-0.4L342.5,163.4z M373.4,163.6
	c0.1-0.1,0.8-1.8,1.1-2.8c0.3,0.1,0.6-0.1,0.6-0.3c0,0,0-0.1,0-0.1c-0.1-0.3-0.3-0.6-0.7-0.6l-4.2-1.2c-0.1,0.3-1,5.5-5.8,11.5
	c1.4,0.5,2.7,1.2,3.9,2.1c1.1-1.4,2.2-2.9,3-4.5h6.1v4.2h-6.8v4h6.8v5.3h-11.8v3.9h27.4v-3.9h-11v-5.3h6.9v-4h-6.9v-4.2h9.7v-4h-9.7
	v-4.2c0.1-0.1,0.2-0.2,0.3-0.3c0.1-0.1,0.2-0.3,0.2-0.4c0-0.3-0.2-0.4-0.7-0.4l-4.5-0.1v5.5L373.4,163.6L373.4,163.6z M406.7,158.2
	c0.1,1.4,0.1,2.6,0.1,3.7c-1.3,0.1-7.9,0.4-9.4,0.5v4.7c2.5-0.3,5.7-0.8,9.4-0.9c0,0.5,0,2.9,0,3.4c-3.5,0.2-3.5-0.4-3.5-0.7
	c0.1-0.4,0.3-0.8,0.6-1l-3.3-0.8c-1.6,1.6-2.1,2.6-2.1,3.6c0,3,5.4,2.9,8.4,2.8c0,1.1,0,1.1,0,1.8c-5-0.1-9.3,1.4-9.3,4.8
	c0,2.7,3.4,4.9,8,4.9c6.6,0,6.4-3.5,6.3-5.1c2.3,0.9,4.5,2.2,6.4,3.8c1-1.3,2.2-2.6,3.3-3.8c-3.1-1.9-6.5-3.3-10-4
	c-0.1-1.3-0.1-1.4-0.1-2.7c2.5-0.2,5-0.5,7.5-1V168c-2.5,0.7-5,1.2-7.6,1.4v-3.3c2.8-0.1,5.6,0,8.4,0.3v-4.5
	c-2.2-0.3-6.9-0.2-8.3-0.2c0-0.3,0-0.6,0.2-1.8c0.3,0,0.5-0.2,0.5-0.4c0-0.3-0.3-0.3-0.5-0.4L406.7,158.2z M407.1,179
	c0.2,1.7-0.7,2.2-2.2,2.2c-0.5,0-2.2-0.1-2.2-1.1c0-1.2,2.9-1.2,3-1.2C406.2,178.9,406.6,178.9,407.1,179L407.1,179z M435.7,164.1
	c0-0.9,0.1-2.1,0.3-4.4c0.3,0,0.5-0.2,0.6-0.4c0-0.4-0.5-0.5-0.8-0.5l-4.4-0.4c0.1,1.1,0,5,0,7.1c-1.9,0.6-3.9,0.9-5.9,0.9l1,5.1
	c1.6-0.2,3.2-0.6,4.8-1.1c0,0.4,0,0.8,0,1.1c-1.9,2.7-4,5.3-6.3,7.7l3.7,3.7c0.4-0.5,2.1-3.2,2.5-3.8v1.2c0,1.7-0.1,3.4-0.3,5.2
	l5.2-0.2c-0.4-3.9-0.6-7.9-0.6-11.8c1.9-2.2,4.5-5.3,6.3-5.3c0.5,0,0.9,0.3,0.9,0.8c0,0.1,0,0.1,0,0.2c0,0.9-0.8,7.9-0.8,9.4
	c0,4.3,2.8,5.4,4.5,5.4c1.3,0,3.7-0.6,6.4-3.2c-0.7-1.5-1.3-3-1.6-4.7c-2.2,2.4-3.4,2.6-3.8,2.6c-0.8,0-0.8-1-0.8-1.4
	c0-1.1,0.1-2.3,0.2-3.4c0.7-4.9,0.7-5.2,0.7-6.2c0-4.1-2.9-4.7-3.8-4.7c-2.3,0.3-4.5,1.3-6.2,3.1L435.7,164.1z M465.4,158.2
	c-0.2,1.5-0.4,3.4-0.8,5.7c-1.3,0.1-2.2,0.1-3.6,0.1c-1.5,0-2.6-0.1-3.5-0.1l0.4,4.9c3.3,0,3.7,0,5.5-0.2
	c-1.6,5.2-4.1,10.2-7.4,14.6c1.6,0.6,3.1,1.4,4.5,2.3c3.4-5.5,6-11.4,7.9-17.6c2.3-0.3,4.6-0.7,6.8-1.4l-0.5-4.7
	c-1.6,0.7-3.3,1.2-5,1.5c0.1-0.4,0.6-2.6,0.8-3c0.2,0,0.7,0,0.7-0.4c-0.1-0.3-0.3-0.5-0.6-0.5L465.4,158.2z M468.9,176.1
	c-0.7,1.2-1.1,2.5-1.2,3.9c0,4.3,5.2,4.8,9.2,4.8c2.1,0,4.2-0.2,6.2-0.5c-0.1-0.8-0.2-1.7-0.2-2.5c0-0.8,0.1-1.6,0.2-2.3
	c-2.1,0.7-4.4,1-6.6,1c-1.4,0.1-2.7-0.1-4-0.5c-0.3-0.1-0.5-0.4-0.5-0.8c0.1-0.7,0.3-1.3,0.8-1.8L468.9,176.1z M471.3,173.4
	c2.1-0.3,4.2-0.5,6.3-0.5c1.5,0,3,0.2,4.5,0.5c0-2,0.1-2.5,0.2-4.7c-1.5-0.3-2.9-0.4-4.4-0.3c-2.2,0-4.4,0.2-6.6,0.5L471.3,173.4
	L471.3,173.4z M497.3,181.8c-2-1.9-4.2-3.6-6.6-5l-2.9,3.2c2.3,1.4,4.4,3.1,6.1,5.2L497.3,181.8z M515.4,158.6
	c0.2,1.8,0.3,3.6,0.2,5.4h-9.5v4.5h9.1c-1,5.7-3.2,9.3-10.1,13c1.4,0.9,2.6,2.2,3.5,3.6c6.1-3.5,10.1-7.7,11.5-16.6h5
	c-0.2,11.6-1.6,11.6-4.2,11.6c-0.7,0-1.4-0.1-2.1-0.3c0.7,1.6,1.1,3.3,1.2,5c6.2,0.4,7.8-2.5,8.6-4.3c0.7-1.7,1.3-3.8,1.6-16.5h-9.5
	c0.1-2,0.1-3.3,0.1-4.2c0.3,0,0.5-0.2,0.6-0.5c0-0.3-0.2-0.3-0.6-0.3L515.4,158.6z M535.3,167.2c1,1.9,2,3.8,2.8,5.7
	c1.2-0.8,2.5-1.4,3.8-1.9c-0.8-1.9-1.7-3.7-2.8-5.5L535.3,167.2z M541.4,165.8c1,1.8,1.9,3.7,2.6,5.6c1.2-0.6,2.5-1.1,3.8-1.6
	c-0.6-2-1.4-3.9-2.5-5.6L541.4,165.8z M551.8,164.7c-1.3,9.5-5.1,13.6-12.8,16.6c1.1,0.9,2.1,2.1,2.8,3.4c7-3,11.8-7.2,14.3-17.8
	c0.2,0,0.6,0,0.6-0.3c0-0.3-0.2-0.4-0.6-0.4L551.8,164.7z M562.4,162v4.3h17.4c-0.9,3.4-2.6,6.5-4.8,9.1c-2.7,2.7-5.9,4.7-9.5,6
	c1.4,1.1,2.6,2.4,3.4,4c3-1.4,5.7-3.1,8.2-5.3c3.4-2.9,5.2-6.4,7.5-12.4c0.5-1.4,1.1-2.7,1.9-4l-3.1-2.2c-0.4,0.3-0.9,0.5-1.4,0.4
	L562.4,162L562.4,162z M586.8,157.1c-1.6,0-2.8,1.3-2.8,2.8c0,1.6,1.3,2.8,2.8,2.8s2.8-1.3,2.8-2.8l0,0
	C589.6,158.4,588.3,157.1,586.8,157.1C586.8,157.1,586.8,157.1,586.8,157.1L586.8,157.1z M586.8,158.6c0.7,0,1.3,0.6,1.3,1.3
	c0,0,0,0,0,0c0,0.7-0.6,1.3-1.3,1.3c-0.7,0-1.3-0.6-1.3-1.3C585.4,159.2,586,158.6,586.8,158.6L586.8,158.6z M616,179.7v0.8h3v-16.2
	h-5.4l0.4-1.4h5.5v-3.5h-14.1v3.5h4.7l-0.4,1.4h-4.3v16.2h3v-0.8L616,179.7L616,179.7z M612.8,175.2v1.3h-1.1v-1.3H612.8z
	 M608.5,176.5v-9.2h1.3v9.2H608.5z M611.7,172.7v-1.5h1.1v1.5H611.7z M614.7,176.5v-9.2h1.3v9.2H614.7z M611.7,168.7v-1.3h1.1v1.3
	H611.7z M608.9,181.7c-2.5,0-5-0.5-7.2-1.6c1.5-1.8,2.7-3.8,3.4-6.1l-1.2-1H599c0.2-0.4,0.3-0.8,0.4-1.1h5.6v-3.3h-4.3v-1.2h3.5
	v-3.1h-3.5v-1.2h4V160h-4v-0.7c0.4,0,0.7-0.2,0.8-0.5c-0.1-0.3-0.3-0.4-0.6-0.4l-4.2-0.1v1.7h-3.9v3.1h3.9v1.2h-3.4v3.1h3.4v1.2
	h-4.4v3.3h3.2c-1,2.1-2.5,4-4.2,5.6c1.2,0.5,2.3,1.2,3.2,2.1c0.3-0.3,0.4-0.4,0.8-0.8c0.4,0.5,0.8,1.1,1.2,1.6
	c-1.5,1.3-3.2,2.3-5.1,3c1.2,0.7,2.2,1.6,3.1,2.7c1.7-1,3.2-2.1,4.7-3.4c1.2,0.7,2.5,1.3,3.8,1.7c2,0.5,4,0.8,6,0.8H619
	c0.1-1.4,0.4-2.9,1.1-4.1c-2,0.3-4.1,0.5-6.2,0.5H608.9L608.9,181.7z M600,176.1c-0.3,0.6-0.7,1.3-1.1,1.8c-0.9-1-1.2-1.5-1.4-1.8
	H600z M650,158.6c-3.9,1.1-8,1.8-12,2.2c-4.4,0.5-8.9,0.8-13.3,0.7l0.7,5.6c4.1-0.9,8.2-1.6,12.4-1.9c-1.2,0.8-5.5,4.8-5.5,10.3
	c0,7.2,8.6,9.6,11,10.2c0.6-1.9,1.4-3.7,2.2-5.5c-4.1-0.1-8.5-1.8-8.5-5.3c0-4.9,6.4-11.5,13.8-11.4L650,158.6z M646.8,167.4
	c1,1,1.9,2.2,2.7,3.4c0.9-0.8,1.4-1.3,2.2-1.9c-0.8-1.1-1.7-2.2-2.7-3.2L646.8,167.4z M643.7,169.6c1,1,1.9,2.2,2.7,3.4
	c1-0.9,1.5-1.2,2.3-1.8c-0.8-1.2-1.7-2.2-2.8-3.2L643.7,169.6z M667.2,158c0.2,1.3,0.4,2.5,0.4,3.8c-10.3,0.6-11.5,0.7-12.2,0.6
	l0.3,5.1c3.9-0.8,7.9-1.3,12-1.6c0,0.4,0,0.7,0,1.7c-0.6-0.1-6.3-0.3-6.3,6.3c0,1.6,0.4,3.1,1.3,4.4c0.8,0.9,2,1.4,3.2,1.3
	c0.9,0.1,1.7-0.2,2.4-0.7c-1.1,2.5-4.6,4-5.5,4.3c1.6,0.8,3.1,1.9,4.4,3.1c4.1-2.4,6.7-6.8,7-11.6c0-2.1-0.6-4.1-1.7-5.8
	c-0.1-1.1-0.1-2.2,0-3.3c2.2,0,4.5,0,9.9,0.2c-0.1-1.2-0.1-4.2,0-4.8c-0.6,0.1-1.5,0.1-10,0.4c0.1-1.2,0.1-1.6,0.2-2.1
	c0.3,0,0.5-0.2,0.6-0.5c0-0.2-0.3-0.3-0.8-0.3L667.2,158z M667,171.4c1.2,0,1.3,1.2,1.3,1.9c0,1.5-0.5,2.9-1.5,2.9
	c-0.5,0-1.5-0.5-1.5-2.5C665.3,172.4,666,171.4,667,171.4L667,171.4z M691.7,176.6c-2.3,0-4.3,1.9-4.3,4.2c0,2.3,1.9,4.3,4.2,4.3
	c2.3,0,4.3-1.9,4.3-4.2c0,0,0,0,0,0C695.9,178.5,694,176.6,691.7,176.6L691.7,176.6z M691.7,178.5c1.3,0,2.4,1.1,2.4,2.4
	s-1.1,2.4-2.4,2.4s-2.4-1.1-2.4-2.4l0,0C689.3,179.6,690.4,178.5,691.7,178.5L691.7,178.5z"/>
<path id="tete-2" d="M9.2,106.7c-2.8,1.8-5.9,2.9-9.2,3.2l1.6,5c1.3-0.3,2.5-0.8,3.7-1.4c-1.3,2.5-2.8,6.8-2.8,9.5
	c0,5.3,3.9,9.1,9.7,9.1c6.9,0,9.9-5.2,9.9-11.8c0-1.1-0.1-2.1-0.4-3.1c1.1,1.4,2.4,2.7,3.8,3.8c1.2-2,2.1-3.5,2.5-4
	c-3.8-2.8-6.9-6.5-9.1-10.7l-4.4,2.4c2.2,3.4,3.4,7.3,3.4,11.3c0,1.9-0.8,7.5-6.1,7.5c-0.7,0-4.8,0-4.8-5.1c0-4.7,2.5-10.1,5.4-12.5
	L9.2,106.7z M52.8,110.9c-3.6,1.2-7.1,2.7-10.5,4.3c-0.9-2-1.4-4.2-1.3-6.4c0-1,0.1-1.6,0.2-3.2l-5.9,1.3c0.4,1,0.7,2.1,0.8,3.2
	c0.5,3.8,0.7,5.4,2.2,7.1c-3,1.9-6.4,4.4-6.4,8.5c0,2.2,1.3,4.2,3.3,5.2c1.5,0.8,3.5,1.6,8.8,1.6c3.4,0,6.8-0.3,10.1-0.9
	c-0.1-1.8,0-3.5,0.3-5.3c-3.3,1.1-6.8,1.7-10.3,1.7c-3.8,0-7-0.4-7-2.6c0-1.5,2.1-4.1,7.4-6.4c5.4-2.5,8-2.7,10.1-2.8L52.8,110.9z
	 M77.6,126.5c-0.9-1.4-1.9-2.6-3-3.8h7.7v-14.8h-8.7c0.2-0.4,0.3-0.7,0.4-1.1c0.6-0.2,1-0.3,1-0.6c0-0.3-0.5-0.4-0.8-0.4l-4.7-0.3
	c-0.2,0.8-0.4,1.6-0.8,2.4h-5.9v14.8h10.3l-1.8,1.2c-0.1-0.1-0.3-0.2-0.5-0.2l-4-0.3v2.1l-0.3-0.2l-3.7-1.8
	c-1.1,2.2-2.5,4.3-4.2,6.1c1.2,0.7,2.4,1.4,3.5,2.3c1.5-1.8,2.9-3.7,4.1-5.7c0.2,0,0.4-0.1,0.5-0.1v3.6c0,3.1,2.3,3.1,3.1,3.1h6.7
	c3.7,0,4.1-2.5,4.4-4.7C79.8,127.9,78.6,127.3,77.6,126.5L77.6,126.5z M78.1,116H67.3v-1.3h10.8V116z M67.3,111h10.8v1.2H67.3V111z
	 M78.1,119.8H67.3v-1.3h10.8V119.8z M72,129.5c-0.6,0.1-1.1-0.3-1.2-0.9c0-0.1,0-0.3,0-0.4v-3.4c0.1,0,0.3-0.1,0.4-0.2
	c1.1,1.3,2.1,2.8,3,4.3c1-0.9,2.1-1.6,3.2-2.3c-0.5,2.2-0.7,2.8-1.9,2.8L72,129.5L72,129.5z M78.8,125.2c1.9,1.9,3.4,4.1,4.6,6.4
	c1.1-1,2.3-1.8,3.7-2.5c-1.3-2.3-2.9-4.4-4.8-6.2L78.8,125.2z M91.8,117.4c3.2-1.8,10.6-4.9,15.1-4.9c5.3,0,5.9,4.2,5.9,5.7
	c0,7.4-9.5,7.6-14.9,7.5c0.7,1.5,1.2,3.1,1.5,4.8c4.8-0.2,18.5-1.1,18.5-12.4c0-5.3-3.1-10.1-10.4-10.1c-3.3,0-5.3,0.5-13.8,2.7
	c-1.2,0.3-2.5,0.6-3.8,0.7L91.8,117.4z M124.1,107.2c-0.9,3.7-1.4,7.4-1.5,11.2c0,9.3,4.4,12.8,6.1,12.8c1.5,0,4.2-2,6.6-7.9
	c-1.2-0.9-2.3-2-3.1-3.2c-0.8,1.9-2,4.5-2.9,4.5c-0.9,0-2-2.6-2-6.2c0-3.1,0.6-6.1,1.7-9c0.3,0,0.6-0.2,0.6-0.5c0,0,0,0,0,0
	c-0.1-0.3-0.3-0.4-0.6-0.4L124.1,107.2z M139.6,111.3c3.1,4.4,4.8,9.5,5,14.8c1-0.5,3.1-1.5,4.9-2.2c-0.6-5.5-2.7-10.7-6.1-15.1
	L139.6,111.3z M162.5,105.7c-0.2,1.5-0.4,3.4-0.8,5.7c-1.3,0.1-2.2,0.1-3.6,0.1c-1.5,0-2.6-0.1-3.5-0.1l0.4,4.9c3.3,0,3.7,0,5.5-0.2
	c-1.6,5.2-4.1,10.2-7.4,14.6c1.6,0.6,3.1,1.4,4.5,2.3c3.4-5.5,6-11.4,7.9-17.6c2.3-0.3,4.6-0.7,6.8-1.4l-0.5-4.7
	c-1.6,0.7-3.3,1.2-5,1.5c0.1-0.4,0.6-2.6,0.8-3c0.2,0,0.7,0,0.7-0.4c-0.1-0.3-0.3-0.5-0.6-0.5L162.5,105.7z M166,123.6
	c-0.7,1.2-1.1,2.5-1.2,3.9c0,4.3,5.2,4.8,9.1,4.8c2.1,0,4.2-0.2,6.2-0.5c-0.1-0.8-0.2-1.7-0.2-2.5c0-0.8,0.1-1.6,0.2-2.3
	c-2.1,0.7-4.4,1-6.6,1c-1.4,0.1-2.7-0.1-4-0.5c-0.3-0.1-0.5-0.4-0.5-0.8c0.1-0.7,0.3-1.3,0.8-1.8L166,123.6z M168.5,120.9
	c2.1-0.3,4.2-0.5,6.3-0.5c1.5,0,3,0.2,4.5,0.5c0-2,0.1-2.5,0.2-4.7c-1.5-0.3-2.9-0.4-4.4-0.3c-2.2,0-4.4,0.2-6.6,0.5L168.5,120.9
	L168.5,120.9z M191.1,109.5c3.2,0.7,6.2,1.9,8.9,3.7c0.8-1.5,1.7-3,2.7-4.4c-3.1-1.7-6.5-2.8-10.1-3.3L191.1,109.5z M189.3,110.9
	c-1.4,4-2.5,8.2-3.1,12.4l4.3,1.6c2.2-2.2,5.3-4.9,9.6-4.9c3.1,0,3.5,2.2,3.5,3.1c0,2.5-2.7,5.1-9.5,5.1c-1.5,0-3-0.1-4.4-0.4
	c0.7,1.6,1.2,3.3,1.4,5c0.6,0,1.3,0.1,2.2,0.1c9.9,0,15.3-3.9,15.3-9.7c0.1-4-3.1-7.3-7.1-7.4c-0.2,0-0.4,0-0.5,0
	c-3.1,0.1-6.2,1.1-8.8,2.8c0.4-1.8,1.1-3.6,2-5.2c0.3,0,0.7-0.1,0.7-0.4c0-0.2-0.2-0.4-0.5-0.4L189.3,110.9z M222.1,129.3
	c-2-1.9-4.2-3.6-6.6-5l-2.9,3.2c2.3,1.4,4.4,3.1,6.1,5.2L222.1,129.3z M240.9,105.4c-0.3,1.8-0.6,3.6-1.1,5.3
	c-2.4,0.1-4.9-0.1-7.3-0.7l0.1,4.9c1.1,0.1,3.2,0.2,5.8,0.2c-1,2.9-2.4,5.8-4,8.4l4.3,2.2c2.7-3,6.4-4.7,10.4-5
	c2.8,0,3.7,1.5,3.7,3.2c0,1.2-0.6,2.3-1.6,2.8c-3.1,1.8-8.2,1.8-8.9,1.8c-1.5,0-3-0.1-4.5-0.3c0.5,1.4,0.9,2.9,1.1,4.5
	c0.9,0.1,1.9,0.1,2.8,0.2c8.3,0,11.3-1.8,12.9-2.9c2-1.4,3.2-3.6,3.2-6.1c0-1.5-0.4-7.1-8.4-7.1c-2.7,0.1-5.4,0.8-7.8,2
	c0.6-1.5,0.8-2.1,1.6-4.1c4.2-0.4,8.3-1.2,12.3-2.6c-0.3-1.2-0.7-3.5-0.8-4.5c-3.2,1.1-6.4,1.9-9.8,2.4c0.1-0.4,0.2-0.7,0.9-2.7
	c0.5,0,0.7-0.2,0.7-0.4c-0.1-0.3-0.3-0.5-0.6-0.5L240.9,105.4z M269.9,110.8c0.1,1.3,0.5,10.8,0.5,12.3c-3.6-0.1-8.2,1.2-8.2,4.5
	c0,1.2,0.7,4.7,7.2,4.7c5.5,0,5.6-2.8,5.6-4.2c2,0.7,3.9,1.8,5.5,3.2c0.9-1.2,1.8-2.4,2.8-3.6c-2.6-1.7-5.5-3.1-8.5-3.9
	c-0.3-1.4-0.4-2.8-0.3-4.2c2.4,0,4.8-0.4,7.2-1l0.2-4.4c-2.4,0.7-4.9,1-7.4,1.1c0-0.9,0.1-2,0.2-2.9c0.3,0,0.5-0.2,0.6-0.4
	c0-0.3-0.4-0.4-0.8-0.4L269.9,110.8z M270.8,126.8c0.1,0.5,0.2,2.1-2.2,2.1c-0.3,0-1.9,0-1.9-1s1.8-1.2,2.8-1.2
	C269.9,126.7,270.4,126.7,270.8,126.8L270.8,126.8z M288.3,121.1c2.5-1.2,7.8-3.7,12-3.7c2.1,0,4.2,0.8,4.2,4.1
	c0,4.6-4.9,5.6-9.3,5.6c-0.8,0-1.7,0-2.5-0.2c0.7,1.4,1.2,2.9,1.5,4.5c2.8-0.1,5.6-0.6,8.2-1.4c3.7-1.3,6.6-3.9,6.6-8.6
	c0-3.3-1.8-8-8.6-8c-2.6,0.1-5.2,0.5-7.7,1.2c-1.6,0.4-4.8,1.1-6,1.3L288.3,121.1z M334.7,110.9c-3.6,1.2-7.1,2.7-10.5,4.3
	c-0.9-2-1.4-4.2-1.3-6.4c0-1,0.1-1.6,0.2-3.2l-5.9,1.3c0.4,1,0.7,2.1,0.8,3.2c0.5,3.8,0.7,5.4,2.2,7.1c-3,1.9-6.4,4.4-6.4,8.5
	c0,2.2,1.3,4.2,3.3,5.2c1.5,0.8,3.5,1.6,8.8,1.6c3.4,0,6.8-0.3,10.1-0.9c-0.1-1.8,0-3.5,0.3-5.3c-3.3,1.1-6.8,1.7-10.3,1.7
	c-3.8,0-7-0.4-7-2.6c0-1.5,2.1-4.1,7.4-6.4c5.4-2.5,7.9-2.7,10.1-2.8L334.7,110.9z M349.9,105.6c-0.1,1.9-0.3,3.9-0.8,5.8
	c-1.1,0.1-2.5,0.1-3.7,0.1c-1.1,0-2.3,0-3.4-0.2l0.4,4.9c0.8,0,4.6-0.2,5.4-0.2c-1.6,5.2-4.1,10.2-7.3,14.6c1.6,0.6,3,1.4,4.5,2.3
	c3.3-5.5,6-11.4,7.8-17.5c2.3-0.2,4.5-0.7,6.7-1.4l-0.5-4.7c-1.6,0.7-3.2,1.2-5,1.5c0.1-0.4,0.6-2.6,0.8-3c0.3,0,0.5-0.2,0.6-0.4
	c-0.1-0.2-0.3-0.4-0.5-0.4L349.9,105.6z M353.3,123.5c-0.6,1.2-1,2.6-1.1,3.9c0,4.7,6.2,4.9,9.8,4.9c1.8,0,3.6-0.2,5.4-0.5
	c-0.2-1.1-0.2-2.2-0.2-3.4c0-0.8,0-1.2,0.1-1.7c-2.1,0.8-4.3,1.3-6.6,1.2c-3.5,0-4.3-0.5-4.3-1.4c0.1-0.6,0.4-1.2,0.8-1.6
	L353.3,123.5z M360.6,109.8c1,1,1.8,2.2,2.6,3.3c0.7-0.6,1.5-1.2,2.3-1.6c-0.9-1.2-1.8-2.3-2.8-3.3L360.6,109.8z M355.8,120.9
	c2-0.3,4.1-0.5,6.1-0.5c1.6-0.1,3.1,0.1,4.6,0.5c0-1.6,0.1-3.2,0.3-4.7c-1.6-0.2-3.2-0.4-4.8-0.4c-2.1,0-4.1,0.2-6.2,0.6V120.9z
	 M363.5,107.6c1,1,2,2,2.8,3.2c0.6-0.6,1.3-1.1,2-1.6c-0.8-1.2-1.7-2.2-2.8-3.2L363.5,107.6z M389.1,106c0.4,2.8,0.7,6.4,0.8,7.3
	c-1.9,0.2-3.1,0.2-3.4,0.2c-1.1,0-2.1-0.1-3.2-0.3l0.4,4.9c2.1,0,4.1-0.1,6.2-0.3c0,4.6-0.4,8.9-4.8,12.2c1.5,0.8,2.9,1.9,3.9,3.3
	c4.8-4.9,5.5-8.2,5.4-16.1c1.5-0.3,3-0.7,4.5-1.2c-0.1-1.5-0.1-3.1-0.1-4.6c-1.4,0.6-2.9,1-4.4,1.3c0-1.7,0-3.7,0-5.4
	c0.3,0,0.5-0.2,0.5-0.4c0-0.3-0.2-0.3-0.8-0.4L389.1,106z M375,106.4c-1.1,3.9-1.6,7.9-1.6,12c0,3.6,0.7,9.8,2.5,13.7l3.9-0.6
	c0.5-3,1.6-5.9,3.2-8.6c-1.1-0.6-2.2-1.4-3.2-2.2c-0.2,0.4-1.1,2.6-1.3,3.1c-0.4-1.5-0.6-3-0.5-4.5c-0.1-3.7,0.5-7.4,1.7-10.9
	c0.3,0,0.6-0.2,0.7-0.5c0-0.2-0.2-0.3-0.5-0.4L375,106.4z M413,126.6v1.4c0,0.9-0.3,1-0.9,1c-0.5,0-1.3-0.1-1.8-0.2
	c0.9,1.3,1.4,2.7,1.5,4.3c4-0.1,5.2-0.5,5.2-2.9v-15.7h-11.9v18.7h4.2v-6.5L413,126.6L413,126.6z M409.4,123.5v-1.3h3.7v1.3H409.4z
	 M409.4,119v-1.3h3.7v1.3H409.4z M413.4,109.7l1.6-0.6c-0.7-1.3-1.5-2.6-2.4-3.8l-4,1.8c0.7,0.8,1.2,1.6,1.7,2.6h-6.6v3.8H431v-3.8
	h-6.9c0.4-0.6,0.7-1.1,1.5-2.3c0.5,0.1,0.9-0.1,0.9-0.4c0-0.2-0.2-0.3-0.4-0.4l-4.5-1.1c-0.7,1.5-1.6,2.9-2.6,4.2L413.4,109.7
	L413.4,109.7z M425.1,114.1V128c0.1,0.4-0.1,0.7-0.5,0.8c-0.1,0-0.2,0-0.3,0c-0.5,0-1.6-0.2-2.1-0.2c0.6,1.4,1,2.9,1,4.5
	c2.5,0,3.8,0.1,4.9-0.7c1-0.6,1.5-1.8,1.3-2.9v-14.3c0.3-0.1,0.6-0.3,0.7-0.6c0-0.3-0.3-0.3-0.5-0.3L425.1,114.1z M418.9,114.7v12.9
	h4.3v-11.9c0.2-0.1,0.4-0.3,0.5-0.5c0-0.2-0.2-0.3-0.5-0.3L418.9,114.7z M449.5,109.8c0.2-0.4,0.9-2.5,1.1-2.9
	c0.3,0,0.5-0.2,0.5-0.4c0-0.2-0.3-0.4-0.5-0.4l-4.7-0.6c-0.4,1.5-0.9,3-1.5,4.4h-8.5v23.4h4.4v-19.4h17.1v13.7c0,0.9,0,1.3-1,1.3
	c-0.3,0-1.9-0.2-2.2-0.2c1,1.4,1.7,3,1.9,4.7c2.5-0.1,5.8-0.1,5.8-4v-19.6H449.5z M442.7,115.7v13.9h4.2v-1.9h8v-12H442.7
	L442.7,115.7z M450.7,119.7v4.3h-3.9v-4.3H450.7z M474.5,106.5c0.3,1,0.5,1.7,1.2,3.5c-2.3,0.4-4.6,0.5-6.9,0.5l1,4.2
	c2.5-0.1,5-0.3,7.5-0.7c0.3,0.7,0.4,1,0.6,1.3c-2.3,0.4-4.6,0.7-6.9,0.7c-0.7,0-1.8,0-3.7-0.1l0.5,4.4c0.6,0.1,1.3,0.1,1.9,0.1
	c3.4,0,6.7-0.4,10-1.1c0.3,0.6,0.7,1.2,1,1.8c-1.4-0.2-2.8-0.3-4.2-0.3c-5,0-8,2.5-8,5.7c0,2.9,2.5,6.6,10.2,6.6
	c2.5,0.1,5.1-0.3,7.5-1c-0.1-0.4-0.1-0.9-0.1-1.3c0-1.1,0.1-2.2,0.3-3.2c-2.5,0.9-5.2,1.3-7.9,1.2c-3.6,0-5.2-1-5.2-2.5
	c0-1.7,2.7-2.2,3.9-2.2c3,0,6,0.9,8.5,2.5l2.8-3c-1.7-1.7-3.3-3.6-4.5-5.7c2.3-0.8,4.5-1.9,6.6-3.3c-0.3-0.5-2-3.2-2.3-3.9
	c-1.9,1.4-4.1,2.5-6.3,3.3c-0.1-0.3-0.2-0.4-0.6-1.3c2-0.6,3.8-1.4,5.6-2.5c-0.6-1.2-1.2-2.4-1.7-3.7c-1.6,1-3.4,1.7-5.2,2.2
	c-0.3-1.1-0.4-2.1-0.5-3.2L474.5,106.5z M511.4,116.5c-1.2,1-2,2.5-2.1,4.2c0,0.2,0.1,2.4,0.2,2.6c-0.5,0-1.1-0.1-2-0.1
	c-6.1,0-6.2,4.2-6.2,4.7c0,2.8,2.4,4.9,7.1,4.9c3.5,0,5.4-0.8,6-3.7c1.2,0.7,2.4,1.6,3.5,2.5c0.8-1.3,1.8-2.5,2.8-3.6
	c-2-1.5-4.1-2.7-6.4-3.7c-0.2-1-0.3-2-0.3-2.9c0-1.1,0.4-2.1,1.1-2.9L511.4,116.5z M510.1,127.4c-0.1,0.8-0.2,1.7-2.2,1.7
	c-1.3,0-2.1-0.4-2.1-1.1c0-0.8,1.1-1.2,1.9-1.2C508.5,126.8,509.3,127,510.1,127.4L510.1,127.4z M496.2,115c0.9,0,3.8-0.1,4.5-0.2
	c-1.5,4.2-3.6,8.2-6.1,11.8c1.6,0.4,3.1,1,4.5,1.8c1.4-2.1,2.5-4.3,3.5-6.6c1.6-3.7,2.6-6.4,3.1-7.7c1.6-0.3,3.2-0.6,4.8-1.1
	c-0.1-1.5-0.2-3-0.1-4.5c-1.1,0.4-2.1,0.7-3.2,1c0.1-0.4,0.5-1.8,0.6-2c0.2,0,0.6,0,0.6-0.4c0-0.2-0.2-0.4-0.6-0.5l-4.7-1.5
	c-0.3,1.7-0.6,3.4-1.1,5.1c-1.3,0.1-2.2,0.2-3.1,0.2c-1.1,0-2.2-0.1-3.3-0.2L496.2,115z M511.1,114.7c2.7,0.8,5.3,2.1,7.5,3.9
	c0.8-1.3,1.7-2.6,2.7-3.9c-1.3-1.1-3.1-2.3-7.9-3.9L511.1,114.7z M528.4,124.3c1.3,0.6,2.5,1.3,3.7,2.2c-1.9,1.7-4.2,2.9-6.7,3.6
	c2,1.4,2.5,2,3.1,3.2c2.5-0.9,4.8-2.3,6.8-4.1c1.3,1.2,2.6,2.5,3.7,3.9c1.1-1.1,2.2-2,3.5-2.9c-1.3-1.5-2.6-2.8-4.1-4.1
	c0.6-0.8,1.8-2.4,2.4-3.3c0.6,0.1,1,0.1,1-0.3c-0.1-0.3-0.3-0.5-0.5-0.5l-2.5-1.5h5.6c0,10,4.1,12.8,6.2,12.8c2.2,0,3-3.9,3.3-5.2
	c-1.3-0.7-2.4-1.7-3.2-2.9c-0.1,0.5-0.2,2.2-0.6,2.2s-1.2-2.3-1.2-6.5c0-1.4,0.1-2.9,0.3-4.3h-22.3v3.8H537c-0.6,1.1-1.3,2.1-2.1,3
	c-1.2-0.8-2.4-1.6-3.8-2.2L528.4,124.3z M533.5,107.9c0.1-0.2,0.2-0.3,0.2-0.5c0.3,0,0.6-0.2,0.7-0.4c-0.1-0.2-0.3-0.4-0.5-0.4
	l-4.4-1.2c-0.9,3.2-2.5,6.1-4.7,8.6c1.4,0.5,2.6,1.2,3.8,2.1c1.3-1.4,2.4-3,3.3-4.7h19.5v-3.4H533.5z M549.8,112.3h-18.3v3.4h18.3
	V112.3z M567.3,126.3c1.2,1.3,2.2,2.9,3,4.5c1.2-1,2.4-1.9,3.7-2.8c-0.8-1.4-1.7-2.7-2.7-3.8h5.5v3.7c0,1-0.4,1.1-1.5,1.1
	c-0.4,0-0.7-0.1-1.8-0.2c0.9,1.3,1.4,2.8,1.5,4.3c2.4-0.1,3.5-0.2,4.3-0.6c1.9-0.9,1.9-2.2,1.9-3.6v-4.8h2.9v-3.8h-2.9v-1
	c0.3,0,0.6-0.3,0.6-0.6c0-0.2-0.1-0.3-0.4-0.4l-0.6-0.1h3.6v-3.8h-6.9v-2.2h5.7v-3.5h-5.7V107c0.3-0.1,0.6-0.4,0.7-0.7
	c-0.1-0.3-0.4-0.5-0.7-0.4l-4.4-0.2v3.2h-5v3.5h5v2.2h-6.5v2.5c-0.4,0.2-0.7,0.4-2,0.9v-3.9h2.5v-3.7h-2.5v-3.6
	c0.3,0,0.6-0.3,0.6-0.6c0-0.3-0.2-0.3-0.4-0.3l-4.4-0.2v4.8h-3.9v3.7h3.9v5.5c-1.5,0.5-3.1,0.9-4.6,1.3l1,4.1c0,0.3,0.2,0.5,0.5,0.5
	c0.4,0,0.4-0.5,0.5-0.8c1-0.4,1.7-0.6,2.7-1v3.8c0,1.3,0,1.3-1.5,1.3c-0.1,0-1.5-0.1-1.6-0.1c0.9,1.3,1.4,2.8,1.6,4.3
	c3.6,0,5.8,0,5.8-3.6v-7.7c1.2-0.6,1.8-0.9,2.4-1.2c-0.1-0.7-0.2-1.5-0.2-2.2h10v2h-9.4v3.8h3L567.3,126.3z M597,105.4
	c-0.3,1.8-0.6,3.6-1.1,5.3c-2.4,0.1-4.9-0.1-7.3-0.7l0.1,4.9c1.1,0.1,3.2,0.2,5.8,0.2c-1,2.9-2.4,5.8-4,8.4l4.3,2.2
	c2.7-3,6.4-4.7,10.4-5c2.8,0,3.7,1.5,3.7,3.2c0,1.2-0.6,2.3-1.6,2.8c-3.1,1.8-8.2,1.8-8.9,1.8c-1.5,0-3-0.1-4.5-0.3
	c0.5,1.4,0.9,2.9,1.1,4.5c0.9,0.1,1.9,0.1,2.8,0.2c8.3,0,11.3-1.8,12.9-2.9c2-1.4,3.2-3.6,3.2-6.1c0-1.5-0.4-7.1-8.4-7.1
	c-2.7,0.1-5.4,0.8-7.8,2c0.6-1.5,0.8-2.1,1.6-4.1c4.2-0.4,8.3-1.2,12.3-2.6c-0.3-1.2-0.7-3.5-0.8-4.5c-3.2,1.1-6.4,1.9-9.8,2.4
	c0.2-0.4,0.2-0.7,0.9-2.7c0.5,0,0.7-0.2,0.7-0.4c-0.1-0.3-0.3-0.5-0.6-0.5L597,105.4z M621.1,106.2c-1.2,4.5-1.9,9.2-1.9,13.9
	c-0.1,4.1,0.6,8.2,2.1,12l4.3-1.1c-0.2-2.3,1.2-5.8,2-7.2c-0.9-0.7-1.7-1.5-2.3-2.5c-0.4,0.6-1.1,1.9-1.3,2.2
	c-0.2-0.8-0.2-1.6-0.2-2.4c-0.1-4.2,0.6-8.4,2-12.4c0.3,0,0.6-0.1,0.8-0.4c0-0.2-0.2-0.3-0.8-0.5L621.1,106.2z M630,113.8
	c1,0.1,2.1,0.2,3.9,0.2c3.1,0,6.2-0.3,9.2-0.9c-0.2-1.5-0.4-3-0.4-4.6c-2.9,0.7-5.9,1-8.8,1c-1.8,0-3-0.1-3.9-0.2V113.8L630,113.8z
	 M629.8,121.3c-0.6,1.4-1,2.9-1,4.4c0,3.7,3.4,4.4,7.9,4.4c2.5,0,5.1-0.1,7.6-0.4c-0.1-1.6,0.1-3.3,0.5-4.9
	c-2.4,0.6-4.9,0.8-7.4,0.8c-3.5,0-4.2-0.2-4.2-1.5c0.1-0.7,0.2-1.4,0.5-2.1L629.8,121.3z M666.1,116.5c-1.2,1-2,2.5-2.1,4.2
	c0,0.2,0.1,2.4,0.2,2.6c-0.5,0-1.1-0.1-2-0.1c-6.1,0-6.2,4.2-6.2,4.7c0,2.8,2.4,4.9,7.1,4.9c3.5,0,5.4-0.8,6-3.7
	c1.2,0.7,2.4,1.6,3.5,2.5c0.8-1.3,1.8-2.5,2.8-3.6c-2-1.5-4.1-2.7-6.4-3.7c-0.2-1-0.3-2-0.3-2.9c0-1.1,0.4-2.1,1.1-2.9L666.1,116.5z
	 M664.8,127.4c-0.1,0.8-0.2,1.7-2.2,1.7c-1.3,0-2.1-0.4-2.1-1.1c0-0.8,1.1-1.2,1.9-1.2C663.2,126.8,664,127,664.8,127.4L664.8,127.4
	z M650.9,115c0.9,0,3.8-0.1,4.5-0.2c-1.5,4.2-3.6,8.2-6.1,11.8c1.6,0.4,3.1,1,4.5,1.8c1.4-2.1,2.5-4.3,3.5-6.6
	c1.6-3.7,2.6-6.4,3.1-7.7c1.6-0.3,3.2-0.6,4.8-1.1c-0.1-1.5-0.2-3-0.1-4.5c-1.1,0.4-2.1,0.7-3.2,1c0.1-0.4,0.5-1.8,0.6-2
	c0.2,0,0.6,0,0.6-0.4c0-0.2-0.2-0.4-0.6-0.5l-4.7-1.5c-0.3,1.7-0.6,3.4-1.1,5.1c-1.3,0.1-2.2,0.2-3.1,0.2c-1.1,0-2.2-0.1-3.3-0.2
	L650.9,115z M665.8,114.7c2.7,0.8,5.3,2.1,7.5,3.9c0.8-1.3,1.7-2.6,2.7-3.9c-1.3-1.1-3.1-2.3-7.9-3.9L665.8,114.7z M681.4,121.1
	c2.5-1.2,7.8-3.7,12-3.7c2.1,0,4.2,0.8,4.2,4.1c0,4.6-4.9,5.6-9.3,5.6c-0.8,0-1.7,0-2.5-0.2c0.7,1.4,1.2,2.9,1.5,4.5
	c2.8-0.1,5.6-0.6,8.2-1.4c3.7-1.3,6.6-3.9,6.6-8.6c0-3.3-1.8-8-8.6-8c-2.6,0.1-5.2,0.5-7.7,1.2c-1.6,0.4-4.8,1.1-6,1.3L681.4,121.1z
	 M732.6,106c-6.8,2.1-18.8,3-23.2,3c-1,0-1.6-0.1-2.2-0.1l0.6,5.6c4.1-0.8,8.2-1.4,12.4-1.8c-1.2,1-5.3,4.4-5.3,9.9
	c0,6.4,5.8,9.2,11,10.5c0.5-1.9,1.3-3.7,2.2-5.4c-1.6-0.1-8.4-0.4-8.4-5.4c0-3.9,5.1-11.4,13.7-11.3L732.6,106z M764.5,112.2
	c-1.6,0.6-3.2,1.1-4.8,1.5c0-0.3,0.2-1.8,0.3-2.3c0.9-0.2,1.9-0.4,2.8-0.8l-0.1-4.3c-4.2,1.3-8.7,1.9-13.1,1.8l0.2,4.3
	c0.5,0,0.5,0,0.8,0c0.9,0,3.6-0.2,4.7-0.4l-0.1,2.4c-2,0.2-4,0.3-5.9,0.2l0.2,4.4c1.9-0.1,3.8-0.2,5.7-0.5c0,1.1,0.1,2.3,0.2,3.4
	c-5.8-0.2-7.7,3-7.7,5.1c0,2.7,2.6,5.1,6.8,5.1c5.2,0,5.7-2.8,6-4.4c0.9,0.5,1.1,0.8,3.2,2.8c0.3-0.6,1.8-3.2,2.3-4.2
	c-2.6-2.1-3.6-2.8-5.9-3.6c-0.2-1.7-0.4-3.4-0.3-5c0.7-0.2,2.1-0.5,5.1-1.3L764.5,112.2z M755.7,126c-0.1,1.5-0.3,2.5-2.2,2.5
	c-0.3,0-1.9-0.1-1.9-1.3c0-1.1,1.5-1.5,2.5-1.5C754.7,125.7,755.2,125.8,755.7,126L755.7,126z M741,106.1c-1.3,4.7-2,9.6-2.2,14.6
	c0,3.9,0.5,7.7,1.4,11.5l4.1-0.4c0.4-2.6,1.3-5.1,2.7-7.3c-0.8-0.7-1.6-1.4-2.2-2.2c-0.2,0.3-1,1.8-1.2,2.1
	c-0.3-1.1-0.4-2.3-0.4-3.4c0-4.1,0.8-8.3,2.3-12.1c0.3,0,0.6-0.2,0.7-0.5c-0.1-0.3-0.3-0.5-0.6-0.5L741,106.1z M772.3,106
	c0.1,0.9,0.1,1.9,0.1,2.8c0,1.5-0.3,9.1-0.3,10.9c0,7.5,0.5,13.1,7.2,13.1c6.1,0,11.2-4.2,14.6-9.7c-1.3-1.2-2.4-2.5-3.5-3.9
	c-0.8,1.7-5.3,8.6-10.5,8.6c-2.3,0-3-1.3-3-8.1c0-4,0.3-8,1-11.9c0.4-0.2,0.6-0.2,0.6-0.5c0-0.3-0.2-0.4-0.7-0.4L772.3,106z
	 M798.7,107.2c-0.9,3.7-1.4,7.4-1.5,11.2c0,9.3,4.4,12.8,6.1,12.8c1.5,0,4.2-2,6.6-7.9c-1.2-0.9-2.3-2-3.2-3.2
	c-0.8,1.9-1.9,4.5-2.9,4.5c-0.9,0-2-2.6-2-6.2c0-3.1,0.6-6.1,1.7-9c0.3,0,0.6-0.2,0.6-0.5c0,0,0,0,0,0c-0.1-0.3-0.3-0.4-0.6-0.4
	L798.7,107.2z M814.2,111.3c3.1,4.4,4.8,9.5,5,14.8c1-0.5,3.1-1.5,4.9-2.2c-0.6-5.5-2.7-10.7-6.1-15.1L814.2,111.3z M832.9,124.1
	c-2.3,0-4.3,1.9-4.3,4.2c0,2.3,1.9,4.3,4.2,4.3c2.3,0,4.3-1.9,4.3-4.2c0,0,0,0,0,0C837.1,126,835.2,124.1,832.9,124.1L832.9,124.1z
	 M832.9,126c1.3,0,2.4,1.1,2.4,2.4s-1.1,2.4-2.4,2.4s-2.4-1.1-2.4-2.4l0,0C830.5,127.1,831.6,126,832.9,126L832.9,126z"/>
<g id="tete-3">
	
		<path id="日々がんばって_おなかをすかせている_若手_の皆さんに_食べたあと_くったぁ_とひと息ついてもらいたい_ひと息ついたら_のコピー_2" d="
		M76.3,64.1h8.6v1.2h-8.6V64.1z M84.9,68.8h-8.6v-1.2h8.6V68.8z M71.9,76.6c-1.3,0.3-3,0.6-4.3,0.7l1,3.4c0,0.3,0.2,0.5,0.5,0.6
		c0.2,0,0.3-0.1,0.6-0.6c1.6-0.3,6.3-1.3,11.5-2.6c0-0.8,0.2-1.7,0.3-2.5c3.3,2.5,7.1,4.3,11.2,5.1c0.6-1.4,1.5-2.6,2.6-3.5
		c-2-0.1-4.1-0.6-6-1.2c1.4-1.1,2.7-2.2,3.9-3.4c0.5-0.1,0.9-0.1,0.9-0.5c0-0.2-0.1-0.4-0.2-0.5l-3.2-2.5c-0.4,0.5-0.9,1.1-1.4,1.5
		v-8.5c1,0.5,2.1,0.9,3.2,1.3c0.6-1.3,1.5-2.5,2.7-3.4C90,58.7,84.9,55.7,83.4,54c0-0.1,0.1-0.2,0.1-0.3c0-0.3-0.2-0.6-0.6-0.6
		c0,0,0,0-0.1,0l-4.1-0.5c-1.5,2.2-4.9,5.2-12,7.8c1,0.9,1.9,2,2.6,3.2c0.4-0.2,2.2-1,2.5-1.1L71.9,76.6L71.9,76.6z M77.9,71.8
		c0.8,1.1,1.7,2.1,2.7,3C80,75,77,75.6,76.3,75.7v-3.9H77.9z M82.8,61v-1.1c0.4-0.2,0.6-0.5,0.7-0.9c1.1,0.8,2.2,1.5,3.4,2H82.8
		L82.8,61z M74.8,61c1.3-0.8,2.6-1.6,3.7-2.5V61H74.8z M78.6,58.4c0.7-0.6,1.4-1.2,2-1.8c0.8,0.7,1.6,1.4,2.4,2L78.6,58.4z M88,71.8
		c-1.4,1.2-2.3,1.8-2.7,2.2c-1-0.6-1.8-1.3-2.6-2.2H88L88,71.8z M101.8,72.6c2.2-2.4,4.2-5.1,5.9-7.9c1-1.6,1.2-1.8,1.6-1.8
		c0.2,0,0.5,0.1,0.7,0.3c1,1.1,2,2.2,2.9,3.4c1,1.3,6.7,8.2,10.7,11.2c1-1.6,2.1-3.1,3.4-4.5c-4.5-3.1-8.8-8-12.4-12.1
		c-2.7-3.2-3.7-3.9-5.1-3.9c-1.3,0-2.5,0.9-4,2.9c-3.6,4.6-5,6.4-7.6,8.7L101.8,72.6z M117.8,59.4c1.2,1,2.3,2,3.4,3.1
		c0.7-0.8,1.4-1.5,2.1-2.2c-1.1-1.1-2.2-2.1-3.5-3L117.8,59.4z M120.5,56.6c1.2,0.9,2.3,1.9,3.4,2.9c0.6-0.8,1.3-1.5,2-2.1
		c-1-1-2.2-2-3.4-2.8L120.5,56.6z M139,53.2c-0.2,1.5-0.4,3.4-0.8,5.7c-1.3,0.1-2.2,0.1-3.6,0.1c-1.5,0-2.6-0.1-3.5-0.1l0.4,4.9
		c3.3,0,3.7,0,5.5-0.2c-1.6,5.2-4.1,10.2-7.4,14.6c1.6,0.6,3.1,1.4,4.5,2.3c3.4-5.5,6-11.4,7.9-17.6c2.3-0.3,4.6-0.7,6.8-1.4
		l-0.5-4.7c-1.6,0.7-3.3,1.2-5,1.5c0.1-0.4,0.6-2.6,0.8-3c0.2,0,0.7,0,0.7-0.4c-0.1-0.3-0.3-0.5-0.6-0.5L139,53.2z M142.5,71.1
		c-0.7,1.2-1.1,2.5-1.2,3.9c0,4.3,5.2,4.8,9.1,4.8c2.1,0,4.2-0.2,6.2-0.5c-0.1-0.8-0.2-1.7-0.2-2.5c0-0.8,0.1-1.6,0.2-2.3
		c-2.1,0.7-4.4,1-6.6,1c-1.4,0.1-2.7-0.1-4-0.5c-0.3-0.1-0.5-0.4-0.5-0.8c0.1-0.7,0.3-1.3,0.8-1.8L142.5,71.1z M145,68.4
		c2.1-0.3,4.2-0.5,6.3-0.5c1.5,0,3,0.2,4.5,0.5c0-2,0.1-2.5,0.2-4.7c-1.5-0.3-2.9-0.4-4.4-0.3c-2.2,0-4.4,0.2-6.6,0.5L145,68.4
		L145,68.4z M164.9,61.8c1.1,0.2,2.2,0.3,3.4,0.3c0.5,0,1,0,2-0.1c-0.1,0.5-0.1,1.1-0.2,2.5c-7.3,3.4-7.8,8.7-7.8,10.4
		c0,0.8,0,4.6,4,4.6c1.9,0,3.7-0.6,5.2-1.6c0.1,0.3,0.1,0.4,0.4,0.9c0.3-0.2,1.9-1.2,2-1.3c1.3-0.8,1.4-0.8,1.9-1.1
		c-0.2-0.4-0.3-0.7-0.5-1.3c2.2-2.2,4-4.8,5.4-7.6c1.6,0.5,2.6,2,2.5,3.6c0,3.7-4.5,5.3-7.9,6c1.1,1,1.9,2.3,2.6,3.6
		c5-1.1,10.4-3.7,10.4-9.6c0-5.7-5.4-8.3-10.7-8.3c-1,0-2.1,0.1-3.1,0.3c0-0.2,0.2-1.2,0.3-1.4c3.1-0.4,6.2-1,9.2-1.9l-0.7-4.2
		c-2.3,1-4.8,1.6-7.3,2c0.3-0.8,0.5-1.3,0.9-2.1c0.4,0,0.7-0.1,0.7-0.4c-0.1-0.2-0.3-0.4-0.5-0.4l-4.7-1.5c-0.4,1.4-1,3-1.4,4.9
		c-0.8,0.1-1.6,0.1-1.8,0.1c-1.4,0-2.8-0.1-4.1-0.4L164.9,61.8z M174.1,67.3c0.7-0.2,1.3-0.3,2-0.4c-0.6,1.1-1.2,2.1-1.9,3.1
		C174.1,69.1,174.1,68.2,174.1,67.3L174.1,67.3z M170.4,74c-0.8,0.7-1.7,1.1-2.8,1.2c-0.4,0-0.7-0.2-0.7-0.9c0-1.6,1.2-3.6,3-5
		C170,70.9,170.2,72.5,170.4,74L170.4,74z M214.5,58.4c-3.6,1.2-7.1,2.7-10.5,4.3c-0.9-2-1.4-4.2-1.3-6.4c0-1,0.1-1.6,0.2-3.2
		l-5.9,1.3c0.4,1,0.7,2.1,0.8,3.2c0.5,3.8,0.7,5.4,2.2,7.1c-3,1.9-6.4,4.4-6.4,8.5c0,2.2,1.3,4.2,3.3,5.2c1.5,0.8,3.5,1.6,8.8,1.6
		c3.4,0,6.8-0.3,10.1-0.9c-0.1-1.8,0-3.5,0.3-5.3c-3.3,1.1-6.8,1.7-10.3,1.7c-3.8,0-7-0.4-7-2.6c0-1.5,2.1-4.1,7.4-6.4
		c5.4-2.5,7.9-2.7,10.1-2.8L214.5,58.4z M419.3,58.4c-3.6,1.2-7.1,2.7-10.5,4.3c-0.9-2-1.4-4.2-1.3-6.4c0-1,0.1-1.6,0.2-3.2
		l-5.9,1.3c0.4,1,0.7,2.1,0.8,3.2c0.5,3.8,0.7,5.4,2.2,7.1c-3,1.9-6.4,4.4-6.4,8.5c0,2.2,1.3,4.2,3.3,5.2c1.5,0.8,3.5,1.6,8.8,1.6
		c3.4,0,6.8-0.3,10.1-0.9c-0.1-1.8,0-3.5,0.3-5.3c-3.3,1.1-6.8,1.7-10.3,1.7c-3.8,0-7-0.4-7-2.6c0-1.5,2.1-4.1,7.4-6.4
		c5.4-2.5,7.9-2.7,10.1-2.8L419.3,58.4z M434.9,54.2c-2.8,1.8-5.9,2.9-9.2,3.2l1.6,5c1.3-0.3,2.5-0.8,3.7-1.4
		c-1.3,2.5-2.8,6.8-2.8,9.5c0,5.3,3.9,9.1,9.7,9.1c6.9,0,9.9-5.2,9.9-11.8c0-1.1-0.1-2.1-0.4-3.1c1.1,1.4,2.4,2.7,3.8,3.8
		c1.2-2,2.1-3.5,2.5-4c-3.8-2.8-6.9-6.5-9.2-10.7l-4.4,2.4c2.2,3.4,3.4,7.3,3.4,11.3c0,1.9-0.8,7.5-6.1,7.5c-0.7,0-4.8,0-4.8-5.1
		c0-4.7,2.5-10.1,5.4-12.5L434.9,54.2z M478.4,58.4c-3.6,1.2-7.1,2.7-10.5,4.3c-0.9-2-1.4-4.2-1.3-6.4c0-1,0.1-1.6,0.2-3.2l-5.9,1.3
		c0.4,1,0.7,2.1,0.8,3.2c0.5,3.8,0.7,5.4,2.2,7.1c-3,1.9-6.4,4.4-6.4,8.5c0,2.2,1.3,4.2,3.3,5.2c1.5,0.8,3.5,1.6,8.8,1.6
		c3.4,0,6.8-0.3,10.1-0.9c-0.1-1.8,0-3.5,0.3-5.3c-3.3,1.1-6.8,1.7-10.3,1.7c-3.8,0-7-0.4-7-2.6c0-1.5,2.1-4.1,7.4-6.4
		c5.4-2.5,8-2.7,10.1-2.8L478.4,58.4z M503.3,74c-0.9-1.4-1.9-2.6-3-3.8h7.7V55.4h-8.7c0.2-0.4,0.3-0.7,0.4-1.1c0.6-0.2,1-0.3,1-0.6
		c0-0.3-0.5-0.4-0.8-0.4l-4.7-0.3c-0.2,0.8-0.4,1.6-0.8,2.4h-5.9v14.8h10.3l-1.8,1.2c-0.1-0.1-0.3-0.2-0.5-0.2l-4-0.3v2.1l-0.3-0.2
		l-3.7-1.8c-1.1,2.2-2.5,4.3-4.2,6.1c1.2,0.7,2.4,1.4,3.5,2.3c1.5-1.8,2.9-3.7,4.1-5.7c0.2,0,0.4-0.1,0.5-0.1v3.6
		c0,3.1,2.3,3.1,3.1,3.1h6.7c3.7,0,4.1-2.5,4.4-4.7C505.5,75.4,504.3,74.8,503.3,74L503.3,74z M503.7,63.5h-10.8v-1.3h10.8V63.5z
		 M492.9,58.5h10.8v1.2h-10.8V58.5z M503.7,67.3h-10.8V66h10.8V67.3z M497.7,77c-0.6,0.1-1.1-0.3-1.2-0.9c0-0.1,0-0.3,0-0.4v-3.4
		c0.1,0,0.3-0.1,0.4-0.2c1.1,1.3,2.1,2.8,3,4.3c1-0.9,2.1-1.6,3.2-2.3c-0.5,2.2-0.7,2.8-1.9,2.8L497.7,77L497.7,77z M504.4,72.7
		c1.9,1.9,3.4,4.1,4.6,6.4c1.1-1,2.3-1.8,3.7-2.5c-1.3-2.3-2.9-4.4-4.8-6.2L504.4,72.7z M517.5,64.9c3.2-1.8,10.7-4.9,15.1-4.9
		c5.3,0,5.8,4.2,5.8,5.7c0,7.4-9.5,7.6-14.9,7.5c0.7,1.5,1.2,3.1,1.5,4.8c4.8-0.2,18.5-1.1,18.5-12.4c0-5.3-3.2-10.1-10.3-10.1
		c-3.3,0-5.3,0.5-13.8,2.7c-1.2,0.3-2.5,0.6-3.8,0.7L517.5,64.9z M549.7,54.7c-0.9,3.7-1.4,7.4-1.5,11.2c0,9.3,4.4,12.8,6.1,12.8
		c1.5,0,4.2-2,6.6-7.9c-1.2-0.9-2.3-2-3.2-3.2c-0.8,1.9-2,4.5-2.9,4.5c-0.9,0-2-2.6-2-6.2c0-3.1,0.6-6.1,1.7-9
		c0.3,0,0.6-0.2,0.6-0.5c0,0,0,0,0,0c-0.1-0.3-0.3-0.4-0.6-0.4L549.7,54.7z M565.2,58.8c3.1,4.4,4.8,9.5,5,14.8
		c1-0.5,3.1-1.5,4.9-2.2c-0.6-5.5-2.7-10.7-6.1-15.1L565.2,58.8z M605.3,53.5c-6.8,2.1-18.8,3-23.2,3c-1,0-1.6-0.1-2.2-0.1l0.6,5.6
		c4.1-0.8,8.2-1.4,12.4-1.8c-1.2,1-5.3,4.4-5.3,9.9c0,6.4,5.8,9.2,11,10.5c0.5-1.9,1.3-3.7,2.2-5.4c-1.6-0.1-8.4-0.4-8.4-5.4
		c0-3.9,5.1-11.4,13.7-11.3L605.3,53.5z M620.7,52.7c-0.3,0.8-1.7,4.4-2,5.2c-1.8-0.4-3.6-1-5.3-1.7l-0.9,4.7
		c1.4,0.6,2.9,1.1,4.5,1.5c-0.6,1.6-0.8,2.3-0.9,2.7c-1.4-0.3-2.7-0.8-4-1.3l-1,4.4c1.3,0.5,2.6,0.8,3.9,1.1
		c-0.3,1.2-0.5,2.4-0.5,3.6c0,4.4,3.3,7.5,9.4,7.5c3.9,0,10.9-1.5,10.9-8.1c-0.2-2.4-0.9-4.7-2.1-6.8c-1.4,0.8-2.9,1.3-4.5,1.6
		c0.8,1.4,1.4,3,1.5,4.7c0,4.3-4.5,4.3-5.8,4.3c-1.5,0-4.9,0-4.9-3.7c0-0.8,0.1-1.6,0.3-2.4c2.8,0.4,4.9,0.6,6.7,0.7
		c0.2-0.9,0.7-2.8,1.3-4.4c-2.2,0-4.5-0.1-6.7-0.4c0.3-0.8,0.7-1.8,1.1-2.6c1.9,0.2,3.8,0.3,5.7,0.3c0.3-1.6,0.7-3.2,1.3-4.7
		c-0.4,0-0.8,0.1-1.5,0.1s-2.2-0.1-3.8-0.2c1.1-2,1.4-2.6,1.8-3.2c0.4,0.1,0.8-0.2,0.9-0.5c0-0.3-0.2-0.5-0.5-0.5L620.7,52.7z
		 M644.9,57c3.2,0.7,6.2,1.9,8.9,3.7c0.8-1.5,1.7-3,2.7-4.4c-3.1-1.7-6.5-2.8-10.1-3.3L644.9,57z M643.1,58.4
		c-1.4,4-2.5,8.2-3.2,12.4l4.3,1.6c2.2-2.2,5.3-4.9,9.6-4.9c3.1,0,3.5,2.2,3.5,3.1c0,2.5-2.7,5.1-9.5,5.1c-1.5,0-3-0.1-4.4-0.4
		c0.7,1.6,1.2,3.3,1.4,5c0.6,0,1.3,0.1,2.2,0.1c9.9,0,15.3-3.9,15.3-9.7c0.1-4-3.1-7.3-7.1-7.4c-0.2,0-0.4,0-0.5,0
		c-3.1,0.1-6.2,1.1-8.8,2.8c0.4-1.8,1.1-3.6,2-5.2c0.3,0,0.7-0.1,0.7-0.4c0-0.2-0.2-0.4-0.5-0.4L643.1,58.4z M668.5,54.7
		c-0.9,3.7-1.4,7.4-1.5,11.2c0,9.3,4.4,12.8,6.1,12.8c1.5,0,4.2-2,6.6-7.9c-1.2-0.9-2.3-2-3.2-3.2c-0.8,1.9-2,4.5-2.9,4.5
		c-0.9,0-2-2.6-2-6.2c0-3.1,0.6-6.1,1.7-9c0.3,0,0.6-0.2,0.6-0.5c0,0,0,0,0,0c-0.1-0.3-0.3-0.4-0.6-0.4L668.5,54.7z M684,58.8
		c3.1,4.4,4.8,9.5,5,14.8c1-0.5,3.1-1.5,4.9-2.2c-0.6-5.5-2.7-10.7-6.1-15.1L684,58.8z M706.9,53.2c-0.2,1.5-0.4,3.4-0.8,5.7
		c-1.3,0.1-2.2,0.1-3.6,0.1c-1.5,0-2.6-0.1-3.5-0.1l0.4,4.9c3.3,0,3.7,0,5.5-0.2c-1.6,5.2-4.1,10.2-7.4,14.6
		c1.6,0.6,3.1,1.4,4.5,2.3c3.4-5.5,6-11.4,7.9-17.6c2.3-0.3,4.6-0.7,6.8-1.4l-0.5-4.7c-1.6,0.7-3.3,1.2-5,1.5c0.1-0.4,0.6-2.6,0.8-3
		c0.2,0,0.7,0,0.7-0.4c-0.1-0.3-0.3-0.5-0.6-0.5L706.9,53.2z M710.4,71.1c-0.7,1.2-1.1,2.5-1.2,3.9c0,4.3,5.2,4.8,9.2,4.8
		c2.1,0,4.2-0.2,6.2-0.5c-0.1-0.8-0.2-1.7-0.2-2.5c0-0.8,0.1-1.6,0.2-2.3c-2.1,0.7-4.4,1-6.6,1c-1.4,0.1-2.7-0.1-4-0.5
		c-0.3-0.1-0.5-0.4-0.5-0.8c0.1-0.7,0.3-1.3,0.8-1.8L710.4,71.1z M712.9,68.4c2.1-0.3,4.2-0.5,6.3-0.5c1.5,0,3,0.2,4.5,0.5
		c0-2,0.1-2.5,0.2-4.7c-1.5-0.3-2.9-0.4-4.4-0.3c-2.2,0-4.4,0.2-6.6,0.5V68.4L712.9,68.4z M731.5,54.7c-0.9,3.7-1.4,7.4-1.5,11.2
		c0,9.3,4.4,12.8,6.1,12.8c1.5,0,4.2-2,6.6-7.9c-1.2-0.9-2.3-2-3.2-3.2c-0.8,1.9-2,4.5-2.9,4.5c-0.9,0-2-2.6-2-6.2
		c0-3.1,0.6-6.1,1.7-9c0.3,0,0.6-0.2,0.6-0.5c0,0,0,0,0,0c-0.1-0.3-0.3-0.4-0.6-0.4L731.5,54.7z M747,58.8c3.1,4.4,4.8,9.5,5,14.8
		c1-0.5,3.1-1.5,4.9-2.2c-0.6-5.5-2.7-10.7-6.1-15.1L747,58.8z M765.6,71.6c-2.3,0-4.3,1.9-4.3,4.2c0,2.3,1.9,4.3,4.2,4.3
		c2.3,0,4.3-1.9,4.3-4.2c0,0,0,0,0,0C769.9,73.5,768,71.6,765.6,71.6L765.6,71.6z M765.6,73.5c1.3,0,2.4,1.1,2.4,2.4
		s-1.1,2.4-2.4,2.4s-2.4-1.1-2.4-2.4l0,0C763.3,74.6,764.3,73.5,765.6,73.5L765.6,73.5z"/>
	
		<path id="日々がんばって_おなかをすかせている_若手_の皆さんに_食べたあと_くったぁ_とひと息ついてもらいたい_ひと息ついたら_" class="st0" d="
		M226.5,81.1h3.5V56.3h7.2v-3.5h-10.8V81.1L226.5,81.1z M256.4,52.4c-3.4,4-7.3,7.6-11.4,10.8c-3,2.4-3.1,2.8-3.1,3.5
		c0,0.7,0.4,1.4,1,1.8c8.8,5.7,13.8,10.9,15.1,12.9c1-1.5,2.1-2.9,3.5-4.1c-1.8-2.2-3.9-4.2-6.2-5.9c-2.7-2.1-5.5-3.9-5.5-4
		c-1.2-0.7-1.3-0.8-1.3-1.1c0-0.2,0.1-0.4,1-1.2c1.1-1,2.8-2.4,4.2-3.6c1-0.9,5.9-4.7,6.5-5.2c0.2,0.1,0.3,0.1,0.5,0.1
		c0.2,0,0.3-0.1,0.4-0.3c0,0,0,0,0-0.1c0-0.2-0.1-0.4-0.3-0.4L256.4,52.4z M268.3,68.6c2.5-1.2,7.8-3.7,12-3.7
		c2.1,0,4.2,0.8,4.2,4.1c0,4.6-4.9,5.6-9.3,5.6c-0.8,0-1.7,0-2.5-0.2c0.7,1.4,1.2,2.9,1.5,4.5c2.8-0.1,5.6-0.6,8.2-1.4
		c3.7-1.3,6.6-3.9,6.6-8.6c0-3.3-1.8-8-8.6-8c-2.6,0.1-5.2,0.5-7.7,1.2c-1.6,0.4-4.8,1.1-6,1.3L268.3,68.6z M302.4,53.2
		c-0.2,1.5-0.4,3.4-0.8,5.7c-1.3,0.1-2.2,0.1-3.6,0.1c-1.5,0-2.6-0.1-3.5-0.1l0.4,4.9c3.3,0,3.7,0,5.5-0.2
		c-1.6,5.2-4.1,10.2-7.4,14.6c1.6,0.6,3.1,1.4,4.5,2.3c3.4-5.5,6-11.4,7.9-17.6c2.3-0.3,4.6-0.7,6.8-1.4l-0.5-4.7
		c-1.6,0.7-3.3,1.2-5,1.5c0.1-0.4,0.6-2.6,0.8-3c0.2,0,0.7,0,0.7-0.4c-0.1-0.3-0.3-0.5-0.6-0.5L302.4,53.2z M305.9,71.1
		c-0.7,1.2-1.1,2.5-1.2,3.9c0,4.3,5.2,4.8,9.1,4.8c2.1,0,4.2-0.2,6.2-0.5c-0.1-0.8-0.2-1.7-0.2-2.5c0-0.8,0.1-1.6,0.2-2.3
		c-2.1,0.7-4.4,1-6.6,1c-1.4,0.1-2.7-0.1-4-0.5c-0.3-0.1-0.5-0.4-0.5-0.8c0.1-0.7,0.3-1.3,0.8-1.8L305.9,71.1z M308.3,68.4
		c2.1-0.3,4.2-0.5,6.3-0.5c1.5,0,3,0.2,4.5,0.5c0-2,0.1-2.5,0.2-4.7c-1.5-0.3-2.9-0.4-4.4-0.3c-2.2,0-4.4,0.2-6.6,0.5L308.3,68.4
		L308.3,68.4z M327.2,65.7c0.5,0.1,1.1,0.1,1.6,0.1c0.5,0,1.2,0,2.2-0.1c-0.1,0.7-0.1,1.1-0.2,1.7c-5.5,2.7-5.8,6.7-5.8,8.2
		c0,1.9,0.9,3.8,3.5,3.8c1.4,0,2.7-0.4,3.8-1.2c0.1,0.2,0.1,0.3,0.3,0.7c1.1-0.8,2.3-1.5,3.6-2.1c-0.2-0.4-0.2-0.4-0.4-1
		c1.8-1.6,3.2-3.5,4.2-5.7c1,0.4,1.6,1.5,1.6,2.6c0,2.9-4,4.1-6,4.6c0.8,1,1.5,2.1,2,3.2c5-0.8,8.5-3.8,8.5-7.9
		c0-4.1-3.7-6.8-8.5-6.8c-0.9,0-1.7,0.1-2.5,0.3c0.1-0.2,0.1-0.4,0.2-0.6c2.5-0.3,4.9-0.8,7.3-1.5l-0.6-4c-1.8,0.6-3.6,1.1-5.4,1.4
		c0.1-0.4,0.3-0.8,0.5-1.1c0.3,0,0.5-0.1,0.6-0.4c0-0.2-0.2-0.3-0.6-0.4l-4-1.3c-0.4,1.2-0.8,2.4-1.1,3.8c-1.5,0.1-3,0-4.5-0.2
		L327.2,65.7z M334.8,69.8c0.6-0.2,1.2-0.3,1.8-0.4c-0.4,0.9-1,1.7-1.7,2.5C334.9,71.3,334.9,70.5,334.8,69.8L334.8,69.8z M331.4,75
		c-0.4,0.4-1,0.6-1.6,0.8c-0.4,0-0.6-0.3-0.7-0.6c0,0,0-0.1,0-0.1c0.2-1.2,0.8-2.2,1.7-2.9C331,73.1,331.1,74,331.4,75L331.4,75z
		 M371,63.6c-0.8,1.3-2.3,3.7-5,3.7c-1.2,0-1.7-0.4-3.2-1.7c-2.4-2.1-3.8-3.3-6.1-3.3c-4,0-5.9,3.1-6.7,4.4l2.1,3.5
		c0.7-1.1,2.2-3.7,4.7-3.7c1.5,0,2.1,0.6,3.8,2.2c2.8,2.7,4.8,2.8,5.6,2.8c1.8,0,4.7-0.5,7.2-4.4L371,63.6z M388.1,52.9h-3.5v24.8
		h-7.2v3.5h10.8V52.9L388.1,52.9z"/>
</g>
<path id="tete-4" d="M32.4,25.3v1.7h4.7V2.4H15.6v24.5h4.7v-1.7H32.4z M20.3,21v-5.3h12.1V21H20.3z M20.3,11.6v-5h12.1v5H20.3z
	 M57.4,8.2c0.3-0.5,1.6-3,1.7-3.2c0.2-0.2,0.7-0.3,0.8-0.5c0.1-0.1,0.1-0.2,0.1-0.3C60,4,59.7,3.7,59.4,3.7C59,3.5,56.5,2.4,55,1.8
	c-1.4,3.8-3.5,9.4-11.8,15.5l3.6,3.3c2.9-2.2,5.4-4.9,7.6-7.9h7.3c-2.1,2.7-3,3.7-4.2,5c-0.9-0.7-1.8-1.4-2.8-2L51.5,19
	c3.5,2.2,6.6,5.1,9.1,8.5l3-3.8c-0.7-1-1.5-1.9-2.4-2.8c3-3.6,6.2-7.4,6.9-8.2c0.6-0.8,1.3-1.4,2-2l-3.9-2.8
	c-1.3,0.3-2.6,0.4-3.9,0.3L57.4,8.2L57.4,8.2z M83.1,0.7c-0.1,2.3-0.4,4.5-0.9,6.7C80,8,77.7,8.5,75.3,8.8l1.4,5.1
	c1.4-0.7,2.8-1.2,4.3-1.6c-1.5,4.5-3.7,8.8-6.3,12.8c1.6,0.6,3,1.4,4.3,2.4c3-5.1,5.3-10.5,6.8-16.2c0.3,0,0.6-0.1,0.9-0.1
	c2.7,0,2.8,2.2,2.8,3.4c0,3-0.3,8.4-2.8,8.4c-1.1-0.1-2.1-0.3-3.1-0.6c0.5,1.6,0.7,3.2,0.6,4.9c0.8,0.3,1.7,0.4,2.5,0.4
	c2.9,0,4.2-1.1,4.8-2c2.5-3.2,2.5-9.6,2.5-10.1c0-5.8-1.8-9.1-7.1-8.9c0.1-0.7,0.8-3.2,1-3.8c0.4,0,0.8,0,0.8-0.4
	c0-0.3-0.2-0.4-0.7-0.5L83.1,0.7z M95.2,3.3C95.9,4,97.4,6,97.7,6.4c1.4-1,1.5-1.1,2.2-1.6c-0.7-1.1-1.5-2.1-2.5-3L95.2,3.3z
	 M92.7,7.3c1.3,1.4,4.2,5.2,4.2,6.6c0,0.7-0.4,0.8-1.5,1.1c0.9,1.3,1.6,2.6,2.3,4c1.8-0.7,4.4-1.7,4.4-3.9c-0.1-1.4-0.6-2.7-1.4-3.8
	c-1.4-2.1-3-4-4.9-5.8L92.7,7.3z M98.1,1.5c1,1,1.8,2.1,2.4,3.3c0.7-0.5,1.8-1.2,2.4-1.7c-0.7-1.1-1.6-2.1-2.5-3.1L98.1,1.5z
	 M117.3,0.2c-1.4,3.6-2.6,6.6-4.5,10.7c-0.9,2-5.3,11-7.2,14.2l4.9,2c0.5-1.8,4.1-11.1,7.3-11.1c0.7,0,1.2,0.5,1.3,1.2
	c0,0.1,0,0.2,0,0.3c0,0.8-0.5,4.8-0.5,5.7c0,3,2,4.6,4.8,4.6c2-0.1,4-0.7,5.7-1.8c1.9-1.2,3.6-2.7,5.1-4.3c-1.1-1.2-2.2-2.5-3.1-3.8
	c-2.1,3-5.4,4.9-6.5,4.9c-0.9,0-1.1-0.7-1.1-1.5c0-1,0.1-2,0.4-2.9c0.2-0.8,0.3-1.7,0.3-2.5c0-3.1-2.5-3.8-4.4-3.8
	c-0.9,0-1.9,0.2-2.8,0.4c0.2-0.4,0.4-0.6,0.7-1.1c1.6-3.2,3-5.9,4.1-7.8c0.3,0.1,0.7,0.1,0.7-0.3c0-0.3-0.2-0.5-0.5-0.5L117.3,0.2z
	 M162.5,7.2c-1.4,0.5-2.8,0.9-4.3,1c0-0.5,0.1-2.5,0.3-4.5c0.3,0,0.5-0.2,0.6-0.4c0-0.3-0.3-0.3-0.6-0.4l-5-0.8
	c0.1,2.6,0.1,3.2,0,6.6c-1.8,0.1-3.6,0-5.3-0.3v4.4c0.9,0.1,1.7,0.1,2.6,0.1c0.9,0,2,0,2.8-0.1c0,0.9,0.1,3.2,0.2,4.5
	c-6.8,0-6.8,4.4-6.8,5c0,3.3,3.7,5,6.8,5c4.6,0,5.2-3.2,5.2-4.7c1.4,0.7,2.6,1.6,3.8,2.6c0.5-1.5,1.2-3,1.9-4.4
	c-1.8-1.3-3.9-2.3-6-2.9c-0.2-1.8-0.4-3.7-0.4-5.5c1.5-0.2,2.9-0.5,4.4-0.9L162.5,7.2L162.5,7.2z M154.2,21.2c0,0.2,0.1,0.4,0.1,0.6
	c0.1,0.8-0.5,1.4-1.3,1.5c-0.1,0-0.2,0-0.3,0c-1,0-1.9-0.4-1.9-1.2c0-0.6,0.6-1.2,2-1.2C153.3,20.9,153.7,21,154.2,21.2z M140.4,2.1
	c-0.1,0.4-1,5.6-1.2,6.2c-0.4,2.4-0.6,4.9-0.6,7.4c0,3.9,0.4,7.8,1.4,11.6l3.8-1.1c0.4-2.5,1.4-5,2.7-7.1c-0.7-0.8-1.3-1.8-1.8-2.7
	c-0.2,0.3-1.1,1.3-1.4,1.7c-0.2-0.8-0.3-1.6-0.3-2.4c0-1.7,0.4-7.1,2-11c0.6-0.1,0.7-0.2,0.7-0.4c0-0.3-0.2-0.4-0.7-0.5L140.4,2.1z
	 M159.3,3.5c0.8,1,1.4,2.2,2,3.4c0.7-0.6,1.4-1.1,2.2-1.6c-0.5-1.2-1.1-2.2-2-3.2L159.3,3.5z M162.3,1.7c0.8,1,1.5,2.1,2,3.3
	c0.7-0.7,1.4-1.3,2.2-1.8c-0.5-1.1-1.3-2.1-2.2-3L162.3,1.7z M170.7,16.1c2.5-1.2,7.8-3.7,12-3.7c2.1,0,4.2,0.8,4.2,4.1
	c0,4.6-4.9,5.6-9.3,5.6c-0.8,0-1.7,0-2.5-0.2c0.7,1.4,1.2,2.9,1.5,4.5c2.8-0.1,5.6-0.6,8.2-1.4c3.7-1.3,6.6-3.9,6.6-8.6
	c0-3.3-1.8-8-8.6-8c-2.6,0.1-5.2,0.5-7.7,1.2c-1.6,0.4-4.8,1.1-6,1.3L170.7,16.1z M221.9,1c-6.8,2.1-18.8,3-23.2,3
	c-1,0-1.6-0.1-2.2-0.1l0.6,5.6c4.1-0.8,8.2-1.4,12.4-1.8c-1.2,1-5.3,4.4-5.3,9.9c0,6.4,5.8,9.2,11,10.5c0.5-1.9,1.3-3.7,2.2-5.4
	c-1.6-0.1-8.4-0.4-8.4-5.4c0-3.9,5.1-11.4,13.7-11.3L221.9,1z M236.7,24.3c-2-1.9-4.2-3.6-6.6-5l-2.9,3.2c2.3,1.4,4.4,3.1,6.1,5.2
	L236.7,24.3z M254.2,0.5c0.1,3,0.1,3.3,0.1,5.6c-0.4,0-2,0.1-3.2,0.1c-0.8,0-1.6,0-2.4-0.2v4.8c1.7,0,3.8,0,5.6-0.1
	c0,2.3,0,2.6,0,3.6c-1.2,0.8-6.7,4.9-8,5.6l2.2,5.2c0.4-0.5,0.8-0.9,1.5-1.7c1.9,1.3,3.6,2.7,5.2,4.3l4.1-1.9c-0.3-3-0.4-6-0.4-9
	c1.5-0.6,3.1-1,4.6-1.1c2.1-0.1,3.9,1.5,4,3.5c0,0.1,0,0.3,0,0.4c0,1.5-0.8,2.6-1.9,2.6c-1.4,0-1.4-1.4-1.4-2
	c-0.4,0.2-3.1,1.1-3.7,1.3c0,1.3,0.2,5.3,4.7,5.3c3,0,7.1-1.9,7.1-7.5c0.1-4.4-3.4-8-7.8-8.1c-0.2,0-0.4,0-0.5,0
	c-1.7,0-3.5,0.3-5.1,0.9c0-0.3,0.1-1.7,0.1-2c1.7-0.3,3.3-0.7,4.9-1.3c-0.1-0.5-0.1-1.1-0.1-1.6c0-0.7,0-2.1,0.1-3.2
	c-1.5,0.7-3.1,1.2-4.7,1.5c0.1-1.2,0.1-2.3,0.2-3.2c0.3,0,0.5-0.2,0.5-0.5c0-0.3-0.2-0.3-0.6-0.4L254.2,0.5z M254.4,19.3
	c0,1.1,0.1,2.2-0.4,2.2c-0.5-0.1-1-0.4-1.4-0.8C253.4,20.1,254,19.6,254.4,19.3L254.4,19.3z M265.5,8.5c2.5,1.1,4.6,2.7,6.4,4.7
	c0.8-1.3,1.8-2.5,2.9-3.6c-1.9-1.9-4.1-3.6-6.5-4.8L265.5,8.5z M294.9,11.5c-1.2,1-2,2.5-2.1,4.2c0,0.2,0.1,2.4,0.2,2.6
	c-0.5,0-1.1-0.1-2-0.1c-6.1,0-6.2,4.2-6.2,4.7c0,2.8,2.4,4.9,7.1,4.9c3.4,0,5.4-0.8,6-3.7c1.2,0.7,2.4,1.6,3.5,2.5
	c0.8-1.3,1.8-2.5,2.8-3.6c-2-1.5-4.1-2.7-6.4-3.7c-0.2-1-0.3-2-0.3-2.9c0-1.1,0.4-2.1,1.1-2.9L294.9,11.5z M293.6,22.4
	c-0.1,0.8-0.2,1.7-2.2,1.7c-1.3,0-2.1-0.4-2.1-1.1c0-0.8,1.1-1.2,1.9-1.2C292,21.8,292.8,22,293.6,22.4L293.6,22.4z M279.7,10
	c0.9,0,3.8-0.1,4.5-0.2c-1.5,4.2-3.6,8.2-6.1,11.8c1.6,0.4,3.1,1,4.5,1.8c1.4-2.1,2.5-4.3,3.5-6.6c1.6-3.7,2.6-6.4,3.1-7.7
	c1.6-0.3,3.2-0.6,4.8-1.1c-0.1-1.5-0.2-3-0.1-4.5c-1.1,0.4-2.1,0.7-3.2,1c0.1-0.4,0.5-1.8,0.6-2c0.2,0,0.6,0,0.6-0.4
	c0-0.2-0.2-0.4-0.6-0.5l-4.7-1.5c-0.3,1.7-0.6,3.4-1.1,5.1c-1.3,0.1-2.2,0.2-3.1,0.2c-1.1,0-2.2-0.1-3.3-0.2L279.7,10z M294.6,9.7
	c2.7,0.8,5.3,2.1,7.5,3.9c0.8-1.3,1.7-2.6,2.7-3.9c-1.3-1.1-3.1-2.3-7.9-3.9L294.6,9.7z M318.1,0.7c-0.2,2.2-0.5,4.4-0.9,6.6
	c-1.1,0.2-6.5,1.3-7.7,1.5l1.7,4.8c1.5-0.6,3.1-1.1,4.8-1.5c-1.5,4.6-3.9,8.9-7.1,12.6c1.6,0.6,3,1.4,4.4,2.4
	c2.4-3.2,5.2-7.7,7.6-15.8c1.3-0.1,3.5-0.3,3.5,2.8c0,3.7-1,7.1-2,8c-0.5,0.4-1.1,0.6-1.8,0.6c-0.9,0-1.8-0.2-2.6-0.7
	c0.3,1.3,0.4,2.7,0.5,4c0,0.4,0,0.7-0.1,1.1c1,0.2,2.1,0.3,3.2,0.3c1.7,0.1,3.4-0.7,4.4-2.1c1.4-1.9,3-6.2,3-11.1
	c0-7.3-4.3-7.3-6.9-7.3c0.2-0.8,0.4-1.6,0.8-3.6c0.2,0,0.8-0.1,0.8-0.5c-0.1-0.3-0.3-0.5-0.6-0.4L318.1,0.7z M327.5,6.2
	c1,1,1.8,2.1,2.5,3.3c0.8,1.3,1.3,2.7,1.6,4.1c0,1-1.1,1.2-1.9,1.4c0.7,1.3,1.3,2.6,1.7,4c1-0.2,2-0.5,3-0.9
	c1.4-0.4,2.2-1.8,2.1-3.2c0-2.4-2.1-7.4-5.4-11.1L327.5,6.2z M350.1,0.3c-0.4,1.4-0.9,2.7-1.6,3.9c-0.5,0-0.8,0-1.7,0
	c-2,0-3.8-0.2-4.7-0.2l0,4.3c1.3,0,2.6,0,4.2,0c-1.8,2.8-3.8,5.5-6.1,8.1l4.2,2.4c1.7-2.7,3.8-6,6.9-6c1-0.1,1.9,0.5,2.2,1.5
	c-3.3,1.7-8,4.7-8,8.2c0,5.3,7.8,5.3,9.8,5.3c2.8,0,5.6-0.3,8.4-0.9c0-1.6,0.2-3.2,0.6-4.8c-3.1,1-6.3,1.4-9.6,1.5
	c-1.5,0-4.6-0.1-4.6-1.4c0-1.2,1.9-2.5,3.8-3.6c0,1.1-0.1,2.3-0.2,3.4c0.6-0.1,1.2-0.1,1.7-0.1c1,0,2,0,3,0.1c0-0.8,0.1-1.7,0.1-3
	c0-0.9,0-1.8-0.1-2.7c2.2-0.9,4.5-1.7,6.8-2.4L363.4,9c-1.1,0.6-1.6,0.8-6.1,3c-0.9-1.5-2.6-2.5-4.4-2.6c-0.9,0-1.8,0.2-2.6,0.6
	c0.8-1.3,0.8-1.4,1.2-2.1c3.5-0.4,4.1-0.5,8.5-1.3V2.2c-2,0.7-4.1,1.1-6.2,1.4l0.7-1.5c0.2,0,0.8,0,0.8-0.4c0-0.3-0.3-0.5-0.6-0.5
	L350.1,0.3z M381.2,0.5c0.2,1.3,0.4,2.5,0.4,3.8c-10.3,0.6-11.5,0.7-12.2,0.6l0.3,5.1c3.9-0.8,7.9-1.3,12-1.6c0,0.4,0,0.7,0,1.7
	c-0.6-0.1-6.3-0.3-6.3,6.3c0,1.6,0.4,3.1,1.3,4.4c0.8,0.9,2,1.4,3.2,1.3c0.9,0.1,1.7-0.2,2.4-0.7c-1.1,2.5-4.6,4-5.5,4.3
	c1.6,0.8,3.1,1.9,4.4,3.1c4.1-2.4,6.7-6.8,7-11.6c0-2.1-0.6-4.1-1.7-5.8c-0.1-1.1-0.1-2.2,0-3.3c2.2,0,4.5,0,9.9,0.2
	c-0.1-1.2-0.1-4.2,0-4.8c-0.6,0.1-1.5,0.1-10,0.4c0.1-1.2,0.1-1.6,0.2-2.1c0.3,0,0.5-0.2,0.6-0.5c0-0.2-0.3-0.3-0.8-0.3L381.2,0.5z
	 M381,13.9c1.2,0,1.3,1.2,1.3,1.9c0,1.5-0.5,2.9-1.5,2.9c-0.5,0-1.5-0.5-1.5-2.5C379.4,14.9,380.1,13.9,381,13.9L381,13.9z
	 M410.4,0.7c-0.2,2.2-0.5,4.4-0.9,6.6c-1.1,0.2-6.4,1.3-7.7,1.5l1.6,4.8c1.5-0.6,3.1-1.1,4.8-1.5c-1.5,4.6-3.9,8.9-7.1,12.6
	c1.6,0.6,3,1.4,4.4,2.4c2.4-3.2,5.2-7.7,7.6-15.8c1.3-0.1,3.5-0.3,3.5,2.8c0,3.7-1,7.1-2,8c-0.5,0.4-1.1,0.6-1.8,0.6
	c-0.9,0-1.8-0.2-2.6-0.7c0.3,1.3,0.4,2.7,0.5,4c0,0.4,0,0.7-0.1,1.1c1,0.2,2.1,0.3,3.2,0.3c1.7,0.1,3.4-0.7,4.4-2.1
	c1.4-1.9,3-6.2,3-11.1c0-7.3-4.3-7.3-6.9-7.3c0.2-0.8,0.4-1.6,0.8-3.6c0.2,0,0.8-0.1,0.8-0.5c-0.1-0.3-0.3-0.5-0.6-0.4L410.4,0.7z
	 M419.8,6.2c1,1,1.8,2.1,2.5,3.3c0.8,1.3,1.3,2.7,1.6,4.1c0,1-1.1,1.2-1.9,1.4c0.7,1.3,1.3,2.6,1.7,4c1-0.2,2-0.5,3-0.9
	c1.4-0.4,2.2-1.8,2.1-3.2c0-2.4-2.1-7.4-5.4-11.1L419.8,6.2z M448.6,1c0.5,2.3,0.7,4.7,0.7,7.1c-1.9,0.3-4.8,0.8-5.7,0.9
	c0.1-0.7,0.3-3.8,0.3-4.6c0.3,0,0.5-0.2,0.5-0.4c0-0.4-0.4-0.4-0.8-0.5L438.5,3c0.3,2.3,0.4,4.6,0.4,6.9c-2,0.4-4,0.7-6,0.8l0.4,5.2
	c1.2-0.3,2.2-0.6,5.8-1.5c-0.1,4.4-0.1,6.8,0.4,8.5c1.1,4.1,5.8,4.1,7.5,4.1c3.5,0,6.9-0.3,10.3-0.8c0-1.6,0.2-3.3,0.6-4.9
	c-3.3,0.8-6.7,1.2-10.1,1.3c-2.1,0-3-0.2-3.6-0.8c-0.6-0.5-0.8-0.8-0.8-5.6c0-0.9,0-1.8,0.1-2.7c0.9-0.2,5.1-0.9,6-1
	c-0.2,3-0.3,3.4-2,3.4c-0.6,0-1.1-0.1-1.7-0.2c0.5,1.4,0.9,2.9,1.2,4.4c5.7,0,7-0.3,7-8.3c1.3-0.2,2.7-0.2,4-0.3
	c0.8,0,1.3,0.1,1.7,0.1V6.7c-1,0.1-2,0.2-5.8,0.7c0-0.4-0.1-4.7-0.1-4.8c0.3,0,0.5-0.2,0.6-0.5c0-0.3-0.3-0.4-0.7-0.4L448.6,1z
	 M490.2,1c-6.8,2.1-18.8,3-23.2,3c-1,0-1.6-0.1-2.2-0.1l0.6,5.6c4.1-0.8,8.2-1.4,12.4-1.8c-1.2,1-5.3,4.4-5.3,9.9
	c0,6.4,5.8,9.2,11,10.5c0.5-1.9,1.3-3.7,2.2-5.4c-1.6-0.1-8.4-0.4-8.4-5.4c0-3.9,5.1-11.4,13.7-11.3L490.2,1z M497.6,2.2
	c-0.9,3.7-1.4,7.4-1.5,11.2c0,9.3,4.4,12.8,6.1,12.8c1.5,0,4.2-2,6.6-7.9c-1.2-0.9-2.3-2-3.2-3.2c-0.8,1.9-2,4.5-2.9,4.5
	c-0.9,0-2-2.6-2-6.2c0-3.1,0.6-6.1,1.7-9c0.3,0,0.6-0.2,0.6-0.5c0,0,0,0,0,0c-0.1-0.3-0.3-0.4-0.6-0.4L497.6,2.2z M513.1,6.3
	c3.1,4.4,4.8,9.5,5,14.8c1-0.5,3.1-1.5,4.9-2.2c-0.6-5.5-2.7-10.7-6.1-15.1L513.1,6.3z M545,0.9c-5.2,2-13.8,1.9-15,1.9l0.7,4.7
	c2.7-0.2,5.3-0.5,8-1.1c-3.6,4.3-7.7,8.2-12.1,11.7l3.6,3.5c4.2-4.3,7-7.3,12.1-7.3c4.7,0,4.9,3.7,4.9,4.4c0,1.5-0.7,2.8-2,3.5
	c-0.7-2.8-3.6-4.4-6.5-4.4c-3.1,0-5.9,1.8-5.9,4.8c0,3.6,3.8,5.2,7.6,5.2c5.2,0,11.5-2.9,11.5-9.5c0-5.3-4.2-7.9-8.3-7.9
	c-1.2,0-2.4,0.2-3.6,0.4c2.3-2.4,4.8-4.6,7.3-6.7L545,0.9z M541.3,24c-0.5,0.2-1,0.2-1.5,0.2c-1,0-2.7-0.4-2.7-1.6
	c0-0.6,0.4-1.1,1-1.1c0.1,0,0.2,0,0.3,0C539.8,21.6,541.1,22.6,541.3,24L541.3,24z M569.7,4.4c0.1-1.5,0.7-1.9,2.5-2.1V0.4
	c-2.1,0.2-5.3,0.5-5.3,4.1v5.3h5.3V4.4L569.7,4.4L569.7,4.4z M562.8,4.4c0.1-1.5,0.7-1.9,2.5-2.1V0.4c-2.1,0.2-5.3,0.5-5.3,4.1v5.3
	h5.3V4.4L562.8,4.4L562.8,4.4z M591.7,9.9c0.1-0.2,0.2-0.5,0.3-0.7c0.3,0,0.6-0.1,0.9-0.4h3.8V6.3h7V2.7h-7v-1
	c0.3,0,0.6-0.2,0.7-0.5c0-0.2-0.2-0.3-0.4-0.3c0,0,0,0,0,0l-4.6-0.3v2.2h-5.1v-1c0.4,0,0.7-0.2,0.7-0.6c0-0.2-0.3-0.4-0.5-0.4
	l-4.5-0.3v2.2h-6.5v3.6h6.5v2.5h4.3V6.3h5.1v1.9L588.2,7c-0.4,1-0.8,1.9-1.3,2.8h-10.5v3.8h8.1c-2.4,3.1-5.6,5.6-9.3,7.1
	c1.2,1,2.2,2.2,3.1,3.5c1.5-0.8,2.8-1.7,4.1-2.7v6.6h4.5v-1.3h9.6v1.3h4.5V15.9H588c0.6-0.7,1.1-1.5,1.6-2.3h14.1V9.9H591.7
	L591.7,9.9z M586.8,23.2v-3.7h9.6v3.7H586.8z M624.3,6.6c2.5-0.4,4.9-1,7.2-1.9c0.3,0.2,0.6,0.3,0.9,0.3c0.3,0,0.5-0.2,0.5-0.5
	c0-0.1-0.1-0.3-0.2-0.4l-3-3.6c-7.5,3.2-15.7,3-19.9,2.8c0.9,1.2,1.5,2.6,1.7,4.1c1.7,0,5-0.1,8-0.3v1.9h-9.8v4.1h9.8v2.1h-11.8v4.2
	h11.8v3c0,0.9-0.1,1.5-1.3,1.5c-1,0-1.9-0.2-2.9-0.3c1.1,1.4,1.7,3,2,4.7c5.3-0.1,7.1-0.6,7.1-4.4v-4.5h11.2v-4.2h-11.2v-2.1h9.3
	V9.1h-9.3L624.3,6.6L624.3,6.6z M641.8,5.8c-0.1,1.5-0.7,1.9-2.5,2.1v1.9c2.1-0.2,5.3-0.5,5.3-4.1V0.4h-5.3v5.4L641.8,5.8L641.8,5.8
	z M648.7,5.8c-0.1,1.5-0.7,1.9-2.5,2.1v1.9c2.1-0.2,5.3-0.5,5.3-4.1V0.4h-5.3v5.4L648.7,5.8L648.7,5.8z M676.1,27.2
	c2.5-0.9,4.7-2.4,6.5-4.3c2.3-2.6,3.5-5.9,3.5-9.3c0-7.2-5.7-11.6-12.3-11.6c-8.8,0-14.7,7.5-14.7,14c0,5.6,4.3,9.5,6.7,9.5
	c3.2,0,7.7-8.2,8.6-19.2c3.9,0.1,7,3.4,6.9,7.3c0,0,0,0,0,0.1c0,3.1-1.9,8.2-8.4,9.4C674.2,24.3,675.3,25.7,676.1,27.2L676.1,27.2z
	 M669.4,7.2c-0.1,3.6-0.8,7.1-2.3,10.3c-0.3,0.8-0.9,2.1-1.6,2.1c-0.6,0-1.9-1.7-1.9-4.1C663.6,12.9,666,8.5,669.4,7.2L669.4,7.2z
	 M703,12.9c0.1,0,0.2,0,0.2-0.1c0-1.3,0.2-2.6,0.5-3.8c-1.1,0.2-2.6,0.5-5.9,1.1V7.6h5.9V4h-5.9V1.9c0.3-0.1,0.6-0.3,0.7-0.6
	c0-0.2-0.2-0.4-0.4-0.4l-4.9-0.3v10.2c-1,0.2-2.2,0.3-3.4,0.3l1,4c0,0.3,0.2,0.5,0.4,0.6c0.3-0.1,0.5-0.3,0.5-0.6
	c4.3-0.8,4.7-0.9,8.9-1.7c-0.3,0.8-0.7,1.6-1.1,2.4h-6.1v12.3h4.7v-0.8h11.7v0.8h4.7V15.7h-10.2c0.2-0.5,0.6-1.3,0.8-1.7
	c0.7,0.5,1.5,0.7,2.3,0.7h6.2c1.7,0,3.6,0,4.5-5c-1.3-0.3-2.5-0.9-3.6-1.6c-0.4,1.5-0.7,2.7-1.7,2.7h-2.9c-0.6,0.1-1.2-0.2-1.3-0.8
	c0-0.1,0-0.2,0-0.3v-1c2.6-1,5.2-2.1,7.7-3.4c0.2,0.1,0.4,0.1,0.6,0.1c0.2,0,0.4-0.1,0.5-0.4c0,0,0,0,0,0c0-0.2-0.1-0.3-0.3-0.4
	l-3.1-2.8c-1.7,1.1-3.5,2.1-5.4,2.9V1.9c0.4-0.1,0.7-0.4,0.8-0.7c0-0.2-0.2-0.3-0.5-0.3l-4.6-0.4v11.4c0,0.4,0.1,0.9,0.2,1.3
	L703,12.9z M698.2,24v-1.2h11.7V24H698.2L698.2,24z M698.2,20.1V19h11.7v1.1H698.2L698.2,20.1z M729.7,1.9c0.3,0.7,1.9,4.3,2.2,5
	c-3.3,0.9-6.7,1.3-10.1,1.3l1.6,4.7c3.5-0.3,7-0.9,10.4-1.9c1.1,2,1.6,2.8,2.2,3.7c-1.1-0.3-2.1-0.4-3.2-0.4c-6.8,0-9,4.1-9,6.7
	c0,3.9,4.3,6.9,11.6,6.9c2.6,0,5.2-0.3,7.7-1.1c-0.5-1.5-0.8-3.1-0.9-4.7c-2.2,1-4.6,1.5-7,1.5c-5.5,0-6.2-2.3-6.2-3.1
	c0-1.9,2.6-2.5,5-2.5c2.8,0,5.6,0.8,8,2.3l3.1-2.7c-2.6-2.4-4.9-5.2-6.7-8.2c2.6-1,5.2-2.3,7.5-3.9c-0.8-0.9-2.1-2.3-3-3.6
	c-2,1.5-4.1,2.7-6.4,3.5c-0.6-1.5-1.1-3.1-1.4-4.7L729.7,1.9z M761.9,0.2c-1.4,3.6-2.6,6.6-4.5,10.7c-0.9,2-5.3,11-7.2,14.2l4.9,2
	c0.5-1.8,4.1-11.1,7.3-11.1c0.7,0,1.2,0.5,1.2,1.2c0,0.1,0,0.2,0,0.3c0,0.8-0.5,4.8-0.5,5.7c0,3,2,4.6,4.8,4.6c2-0.1,4-0.7,5.7-1.8
	c1.9-1.2,3.6-2.7,5.1-4.3c-1.1-1.2-2.2-2.5-3.1-3.8c-2.1,3-5.4,4.9-6.5,4.9c-0.9,0-1.1-0.7-1.1-1.5c0-1,0.1-2,0.4-2.9
	c0.2-0.8,0.3-1.7,0.3-2.5c0-3.1-2.5-3.8-4.4-3.8c-0.9,0-1.9,0.2-2.8,0.4c0.2-0.4,0.4-0.6,0.7-1.1c1.6-3.2,3-5.9,4.1-7.8
	c0.3,0.1,0.7,0.1,0.7-0.3c0-0.3-0.2-0.5-0.5-0.5L761.9,0.2z M785.2,1.2c-1.2,4.5-1.9,9.2-1.9,13.9c-0.1,4.1,0.6,8.2,2.1,12l4.3-1.1
	c-0.2-2.3,1.2-5.8,2-7.2c-0.9-0.7-1.7-1.5-2.3-2.5c-0.4,0.6-1.1,1.9-1.3,2.2c-0.2-0.8-0.2-1.6-0.2-2.4c-0.1-4.2,0.6-8.4,2-12.4
	c0.3,0,0.6-0.1,0.8-0.4c0-0.2-0.2-0.3-0.8-0.5L785.2,1.2z M794.1,8.7c1,0.1,2.1,0.2,3.9,0.2c3.1,0,6.2-0.3,9.2-0.9
	c-0.2-1.5-0.4-3-0.4-4.6c-2.9,0.7-5.9,1-8.8,1c-1.8,0-3-0.1-3.9-0.2V8.7L794.1,8.7z M793.9,16.3c-0.6,1.4-1,2.9-1,4.4
	c0,3.7,3.5,4.4,7.9,4.4c2.5,0,5.1-0.1,7.6-0.4c-0.1-1.6,0.1-3.3,0.4-4.9c-2.4,0.6-4.9,0.8-7.4,0.8c-3.5,0-4.2-0.2-4.2-1.5
	c0.1-0.7,0.2-1.4,0.5-2.1L793.9,16.3z M823.2,24.3c-2-1.9-4.2-3.6-6.6-5l-2.9,3.2c2.3,1.4,4.4,3.1,6.1,5.2L823.2,24.3z"/>
</svg>
