<svg xmlns="http://www.w3.org/2000/svg" width="695.343" height="29.13" viewBox="0 0 695.343 29.13">
  <defs>
    <style>
      .cls-1 {
        fill-rule: evenodd;
      }
    </style>
  </defs>
  <path id="charm_txt.svg" class="cls-1" d="M292.931,3641.57h3.54v-24.81H303.7v-3.54H292.931v28.35Zm38.58-6.36v0.75h2.969v-16.23h-5.429l0.39-1.41h5.519v-3.54h-14.1v3.54h4.71l-0.39,1.41h-4.26v16.23h3.03v-0.75h7.56Zm-3.27-4.53v1.35h-1.08v-1.35h1.08Zm-4.29,1.35v-9.15h1.29v9.15h-1.29Zm3.21-3.84v-1.47h1.08v1.47h-1.08Zm3.03,3.84v-9.15h1.32v9.15h-1.32Zm-3.03-7.8v-1.35h1.08v1.35h-1.08Zm-2.79,12.93a16.329,16.329,0,0,1-7.2-1.59,16.919,16.919,0,0,0,3.36-6.09l-1.17-1.02h-4.89c0.15-.39.3-0.75,0.42-1.05h5.64v-3.3h-4.35v-1.2h3.48v-3.12h-3.48v-1.2h3.96v-3.09h-3.96v-0.72a0.775,0.775,0,0,0,.78-0.54,0.518,0.518,0,0,0-.6-0.39l-4.2-.09v1.74h-3.869v3.09h3.869v1.2h-3.39v3.12h3.39v1.2h-4.439v3.3h3.209a18.77,18.77,0,0,1-4.2,5.64,8.962,8.962,0,0,1,3.179,2.1c0.27-.27.39-0.42,0.75-0.81a19.451,19.451,0,0,0,1.23,1.56,19.776,19.776,0,0,1-5.069,3.03,11.225,11.225,0,0,1,3.089,2.73,33.423,33.423,0,0,0,4.68-3.39,14.876,14.876,0,0,0,3.81,1.71,27.806,27.806,0,0,0,5.97.81H334.48a9.845,9.845,0,0,1,1.11-4.14,52.532,52.532,0,0,1-6.179.51h-5.04Zm-8.88-5.61a7.794,7.794,0,0,1-1.14,1.8c-0.87-.99-1.23-1.53-1.44-1.8h2.58Zm34.68-18.18h-3.54v24.81H339.4v3.54h10.769v-28.35Zm15.6,28.2h3.54v-24.81h7.23v-3.54h-10.77v28.35Zm30.6-21.3c-1.35,3.45-2.58,6.39-6,9.69a25.221,25.221,0,0,1-9.75,6,13.4,13.4,0,0,1,3.42,4.11c3.93-1.65,8.64-5.52,11.52-8.97a41.15,41.15,0,0,1,8.069,8.55c0.99-1.14,2.61-2.94,3.6-4.08a79.352,79.352,0,0,0-9-8.22,51.765,51.765,0,0,0,3.809-7.35,9.18,9.18,0,0,1,1.14-1.92l-2.34-2.55a8.283,8.283,0,0,1-2.069.24h-15.33v4.5h12.93Zm15.39,4.68v5.1h26.069v-5.1H411.762Zm32.19-7.5v4.32h17.4a23.071,23.071,0,0,1-4.83,9.12,26.088,26.088,0,0,1-9.48,6,13.13,13.13,0,0,1,3.42,3.96,34.184,34.184,0,0,0,8.16-5.28c3.36-2.94,5.159-6.36,7.5-12.39a17.092,17.092,0,0,1,1.92-3.99l-3.06-2.16a1.8,1.8,0,0,1-1.44.42H443.952Zm24.389-4.86a2.82,2.82,0,1,0,2.82,2.82A2.8,2.8,0,0,0,468.341,3612.59Zm0,1.5a1.312,1.312,0,0,1,1.32,1.32,1.332,1.332,0,0,1-1.32,1.32A1.32,1.32,0,0,1,468.341,3614.09Zm16.441-.72h-3.54v24.81h-7.23v3.54h10.77v-28.35Zm15.6,28.2h3.54v-24.81h7.23v-3.54h-10.77v28.35Zm19.321-27.51v16.89h18.6v-16.89H519.7Zm14.249,7.68v1.38h-9.779v-1.38h9.779Zm-9.779-2.85v-1.38h9.779v1.38h-9.779Zm9.779,7.05v1.41h-9.779v-1.41h9.779Zm-2.82,10.59a25.163,25.163,0,0,0,8.88,4.74,21.523,21.523,0,0,1,2.61-3.57,18.65,18.65,0,0,1-5.76-2.19h5.55v-3.6H515.5v3.6h5.94a26.644,26.644,0,0,1-5.61,2.58,10.862,10.862,0,0,1,2.46,3.39,43.065,43.065,0,0,0,8.279-4.47c0.21,0.03.45,0.06,0.54,0.06a0.379,0.379,0,0,0,.42-0.42,0.67,0.67,0,0,0-.18-0.39l-0.84-.75h5.7Zm33.78-13.53a28.212,28.212,0,0,1-8.85,11.16,13.8,13.8,0,0,1,4.05,2.79,41.406,41.406,0,0,0,6.42-8.61v7.11c0,0.93-.21,1.14-0.81,1.14a22.49,22.49,0,0,1-2.79-.27,10.387,10.387,0,0,1,1.68,4.86,12.707,12.707,0,0,0,4.83-.6c0.45-.21,1.59-0.78,1.59-3.03V3623H574v-3.93h-2.97v-4.14a0.64,0.64,0,0,0,.57-0.51c0-.36-0.36-0.36-0.78-0.39l-4.29-.27v5.31h-6.21V3623h4.59Zm-8.939,7.38a12.563,12.563,0,0,0,1.019,1.8,16.19,16.19,0,0,1,3.12-2.85,27.35,27.35,0,0,1-4.139-5.94V3623h3.209v-3.93h-3.209v-4.05a0.914,0.914,0,0,0,.539-0.63c0-.33-0.39-0.36-0.689-0.39l-4.17-.27v5.34h-4.71V3623h4.17c-1.89,6.12-3.87,8.76-5.13,10.35a22.581,22.581,0,0,1,4.05,2.94,18.652,18.652,0,0,0,1.62-3.3v8.13h4.32v-10.74Zm33.149-17.01h-3.539v24.81h-7.23v3.54h10.769v-28.35Zm30.69,22.17a13.261,13.261,0,0,0,2.79-8.52c0-8.22-5.67-12.45-11.879-12.45-6.09,0-11.88,4.11-11.88,12.48,0,8.4,5.79,12.48,11.88,12.48a12.759,12.759,0,0,0,6.149-1.59l3.72,3.42,2.67-2.67Zm-7.2-6.6-2.61,2.67,3.18,2.94a6.184,6.184,0,0,1-2.46.48c-2.37,0-6.33-1.32-6.33-7.98,0-6.81,4.14-7.98,6.33-7.98,2.25,0,6.329,1.2,6.329,7.98a9.16,9.16,0,0,1-1.08,4.98Zm26.759-9.3h7.98v-4.41H625.963v4.41h7.98v19.23h5.429v-19.23Zm24.27,0h7.98v-4.41H650.233v4.41h7.979v19.23h5.43v-19.23Zm26.97,14.88,1.41,4.35H697.6l-8.549-23.64h-6.03l-8.55,23.64h5.58l1.41-4.35h9.15Zm-7.95-3.75,3.36-10.44,3.36,10.44h-6.72Zm35.609,9.45a16.606,16.606,0,0,0,6.51-4.35,13.973,13.973,0,0,0,3.54-9.27c0-7.17-5.73-11.64-12.3-11.64-8.819,0-14.7,7.53-14.7,13.98,0,5.55,4.35,9.51,6.69,9.51,3.179,0,7.709-8.19,8.639-19.17a7.108,7.108,0,0,1,6.93,7.35c0,3.12-1.92,8.16-8.43,9.36A19.453,19.453,0,0,1,718.271,3640.22Zm-6.66-20.04a26.238,26.238,0,0,1-2.31,10.32c-0.33.78-.9,2.13-1.619,2.13-0.63,0-1.92-1.74-1.92-4.05C705.762,3625.88,708.132,3621.47,711.611,3620.18Zm38.46,5.85a21.69,21.69,0,0,1-3.42,4.98,5.647,5.647,0,0,1,.69.48l-1.26.39c0.15,0.39.21,0.6,0.42,1.17-0.66.18-.93,0.24-1.26,0.3a23.751,23.751,0,0,0,.96-2.94c0.48-.18.72-0.27,0.72-0.54a0.419,0.419,0,0,0-.39-0.33l-2.46-.75h2.31v-12.21h-5.13a19.228,19.228,0,0,0,.66-1.92,0.726,0.726,0,0,0,.72-0.51,0.445,0.445,0,0,0-.51-0.39l-4.2-.42a14.117,14.117,0,0,1-1.08,3.24h-3.63v12.21h2.07a15.439,15.439,0,0,1-3.51,10.08,9.171,9.171,0,0,1,3.33,2.28,14.823,14.823,0,0,0,2.13-3.84,23.25,23.25,0,0,0,1.59-6.45,0.681,0.681,0,0,0,.66-0.6,0.52,0.52,0,0,0-.51-0.45l-3.3-1.02h3.87v8.88c0,3.18,2.519,3.3,3.629,3.3h11.61c3.06,0,4.86-.39,5.91-5.04a9.2,9.2,0,0,1-3.72-2.01c-0.27,2.73-.93,3.27-2.19,3.27h-10.11c-1.29,0-1.44-.27-1.5-0.72,0.69-.15,2.1-0.54,3.69-0.99a7.513,7.513,0,0,1,.21.78,22.54,22.54,0,0,1,2.34-.63,29.934,29.934,0,0,0-.9-3.15c0.63,0.69.72,0.75,0.93,0.96a20.636,20.636,0,0,0,1.71-2.28v5.28h3.63v-6.15a15.312,15.312,0,0,0,3.36,3.27,10.509,10.509,0,0,1,2.76-2.64,16.352,16.352,0,0,1-5.19-4.89h3.99v-3.36h-4.92v-1.68h3.93v-3.33h-3.93v-3.03a0.975,0.975,0,0,0,.6-0.72c0-.33-0.36-0.36-0.6-0.36l-3.63-.15v4.26h-3.81v3.33h3.81v1.68h-4.17v3.36h3.09ZM738.4,3621.2h-1.83v-1.44h1.83v1.44Zm2.7-1.44h1.89v1.44H741.1v-1.44Zm0,4.14h1.89v1.8H741.1v-1.8Zm-2.7,1.8h-1.83v-1.8h1.83v1.8Zm4.769,3.09h0.87a26.121,26.121,0,0,1-.87,3.75v-3.75Zm31.08-15.03c0.03,1.74.03,2.28,0,5.25h-9.089v4.35h8.969c-0.21,3.21-.54,5.61-2.279,8.28a15.555,15.555,0,0,1-8.07,6.09,12.616,12.616,0,0,1,3.51,3.54c7.259-3.54,10.709-8.55,11.459-17.91h6.93a71.466,71.466,0,0,1-.51,9.84c-0.45,2.82-1.11,3.03-2.28,3.03a16.651,16.651,0,0,1-3.87-.45,11.089,11.089,0,0,1,2.07,5.16c3.54,0,6.99-.03,8.04-3.6,0.57-1.89,1.38-6.69,1.38-18.33h-11.49c0-.18.09-3.45,0.09-3.87a0.9,0.9,0,0,0,.72-0.69,0.6,0.6,0,0,0-.72-0.45Zm31.261-.51a22.35,22.35,0,0,1-1.59,3.93c-0.48.03-.84,0.03-1.71,0.03-2.04,0-3.78-.15-4.71-0.24l-0.03,4.35c1.29,0.03,2.61.03,4.23-.03a63.974,63.974,0,0,1-6.09,8.07l4.17,2.37c1.65-2.67,3.75-6.03,6.87-6.03a2.176,2.176,0,0,1,2.25,1.5c-3.27,1.71-8.04,4.68-8.04,8.22,0,5.31,7.8,5.31,9.81,5.31a37.235,37.235,0,0,0,8.369-.87,18.838,18.838,0,0,1,.57-4.77,33.712,33.712,0,0,1-9.6,1.47c-1.53,0-4.59-.09-4.59-1.44,0-1.23,1.89-2.49,3.75-3.63a25.99,25.99,0,0,1-.21,3.42,13.4,13.4,0,0,1,1.74-.06c0.96,0,2.039,0,3,.06,0.03-.81.09-1.65,0.09-3,0-.9-0.03-1.83-0.09-2.7a71.438,71.438,0,0,1,6.84-2.43l-1.77-4.8c-1.11.63-1.62,0.84-6.06,2.97a5.267,5.267,0,0,0-4.379-2.55,5.685,5.685,0,0,0-2.61.6c0.75-1.32.81-1.44,1.17-2.07,3.54-.42,4.08-0.51,8.549-1.29v-4.44a32.274,32.274,0,0,1-6.209,1.41l0.69-1.47c0.21,0,.75-0.03.75-0.45a0.6,0.6,0,0,0-.6-0.54Zm35.279,6.57v-1.47h-6.239v-1.11c1.11-.15,2.04-0.33,3.54-0.66a1.416,1.416,0,0,0,.75.33,0.313,0.313,0,0,0,.3-0.36,0.706,0.706,0,0,0-.15-0.39l-1.8-2.58c-0.75.33-3.87,1.26-9.33,1.26a19.169,19.169,0,0,1-2.31-.09,6.744,6.744,0,0,1,1.35,2.97c1.38,0.03,2.31-.03,3.87-0.12v0.75h-5.88v3h5.88v0.84h-5.22v9.03h5.22v0.87h-5.4v2.73h5.4v1.32c-3.3.18-4.77,0.24-5.88,0.18l0.48,3.45a0.666,0.666,0,0,0,.54.69,1.016,1.016,0,0,0,.66-0.69,93.907,93.907,0,0,0,10.95-1.08c-0.21.3-.51,0.66-0.6,0.78a17.452,17.452,0,0,1,3.479,2.07,22.6,22.6,0,0,0,2.76-4.23,14.045,14.045,0,0,1,1.59,3.69c0.99,0.06,3.39.06,4.77-1.32,2.28-2.28,2.28-10.68,2.28-19.86h-4.95v-4.77a0.925,0.925,0,0,0,.75-0.63c0-.36-0.27-0.48-0.75-0.51l-4.11-.21v6.12h-1.95Zm-0.51,4.47h2.34a26.614,26.614,0,0,1-3.719,12.33c0.15-.57.21-0.84,0.33-1.23-1.32.21-3.03,0.36-4.68,0.48v-1.05h5.13v-2.73h-5.13v-0.87h5.22v-9.03h-5.22v-0.84h5.729v2.94Zm-11.159,1.41v-1.14h1.65v1.14h-1.65Zm1.65,2.01v1.14h-1.65v-1.14h1.65Zm3.78-2.01v-1.14h1.65v1.14h-1.65Zm1.65,2.01v1.14h-1.65v-1.14h1.65Zm11.459-3.42c0.09,3.3-.06,8.31-0.96,11.43-0.3,1.11-.63,1.38-1.35,1.38a8.462,8.462,0,0,1-1.89-.36c1.32-2.85,2.55-5.88,3.09-12.45h1.11Zm24.24-5.94h12v-3.87H856.452v3.87h11.52v1.98h-5.49v14.55h15.089v-14.55H871.9v-1.98Zm-5.639,7.53v-2.16h1.71v2.16h-1.71Zm1.71,3.3v2.37h-1.71v-2.37h1.71Zm3.929-3.3v-2.16h1.89v2.16H871.9Zm1.89,3.3v2.37H871.9v-2.37h1.89Zm-12.509,7.38v-15.3c0.69-.3.78-0.33,0.78-0.54,0-.36-0.24-0.36-0.78-0.39l-4.26-.21v21.03h4.26v-0.9H878.8v0.9h4.32v-20.07a1.085,1.085,0,0,0,.63-0.72c0-.24-0.15-0.27-0.63-0.3l-4.32-.21v16.71H861.282Zm52.709-22.44a72.094,72.094,0,0,1-12.03,2.19,97.193,97.193,0,0,1-13.349.69l0.69,5.64a81.8,81.8,0,0,1,12.419-1.89c-1.23.78-5.519,4.77-5.519,10.32,0,7.17,8.609,9.57,11.039,10.23a40.459,40.459,0,0,1,2.25-5.46c-4.08-.09-8.49-1.8-8.49-5.28,0-4.86,6.42-11.52,13.83-11.4Zm-3.18,8.79a22.211,22.211,0,0,1,2.67,3.39c0.93-.84,1.44-1.29,2.19-1.86a19.036,19.036,0,0,0-2.67-3.15Zm-3.15,2.13a24.24,24.24,0,0,1,2.67,3.39c1.05-.87,1.47-1.2,2.31-1.8a18.619,18.619,0,0,0-2.79-3.21Zm27.781-7.05c-0.33,4.11-2.07,6.09-3.66,7.35-0.15-.51-0.33-1.14-0.9-2.76l-3.15,1.05c0.15,0.51.3,0.93,0.48,1.68-0.39.03-.93,0.09-2.19,0.18,1.02-1.41,2.85-4.23,4.14-6.45,0.78,0,1.08,0,1.08-.36a1,1,0,0,0-.51-0.48l-3.39-2.01a29.453,29.453,0,0,1-2.43,4.83c-0.09-.09-0.57-0.51-0.66-0.6,0.18-.33,1.17-2.16,2.28-4.56,0.27,0.03.96,0.06,0.96-.39a0.642,0.642,0,0,0-.42-0.42l-3.18-1.68a43.209,43.209,0,0,1-2.25,5.01c-0.33-.21-0.45-0.27-0.81-0.48l-2.01,2.85a44.545,44.545,0,0,1,4.11,3.36c-0.3.45-.66,0.9-1.2,1.56-0.51,0-1.05.03-2.85,0l0.48,3.72a0.629,0.629,0,0,0,.39.66,1.269,1.269,0,0,0,.66-0.78l3.3-.27v1.89a0.717,0.717,0,0,0-.27-0.09l-3.9-.57a29.36,29.36,0,0,1-1.14,7.92,19.519,19.519,0,0,1,3.81.81,39.9,39.9,0,0,0,.99-7.23,1.755,1.755,0,0,0,.51-0.15v9.54h3.93v-12.51c0.33-.03.57-0.03,1.2-0.12,0.15,1.11.18,1.26,0.21,1.47a18.3,18.3,0,0,1,3.42-1.14c-0.12-.75-0.21-1.47-0.42-2.37a11.768,11.768,0,0,1,1.95,2.19,10.964,10.964,0,0,0,3.389-3.66,15.761,15.761,0,0,0,2.01-6.99h2.91c-0.18,6.33-.51,6.33-2.61,6.33-0.42,0-.72-0.03-1.14-0.06a11.8,11.8,0,0,1,1.26,4.05c1.83,0.03,4.14.06,5.46-2.52,0.81-1.62.99-4.41,1.11-11.31H931.212v3.51h4.23Zm-7.38,12.54a40.074,40.074,0,0,0,.45,6.99,17.735,17.735,0,0,1,3.57-.96,31.47,31.47,0,0,1-.69-6.33Zm14.459,9.48v0.93h3.96v-12.18H932.532v12.18h3.959v-0.93h6.03Zm-6.03-3.6v-4.02h6.03v4.02h-6.03Zm25.081-23.13c-3.24,6.27-8.25,8.67-11.88,10.38a8.914,8.914,0,0,1,3.24,3.54,34.847,34.847,0,0,0,11.58-10.2,31.061,31.061,0,0,0,12.629,10.2,13.9,13.9,0,0,1,2.22-3.9,26.935,26.935,0,0,1-11.819-8.79,0.633,0.633,0,0,0,.539-0.51c0-.27-0.24-0.33-1.259-0.39Zm-4.05,11.04c0.12,8.67.15,10.89-5.73,14.19a9.115,9.115,0,0,1,3.27,3.21c6.6-4.29,6.96-8.55,6.96-16.17a0.917,0.917,0,0,0,.54-0.6c0-.24-0.21-0.36-0.75-0.39Zm10.02-.03v16.83h4.439v-15.69a0.669,0.669,0,0,0,.3-0.48c0-.33-0.33-0.33-0.63-0.36Zm15.69,14.58h5.04v-5.07h-5.04v5.07Zm-0.03-23.64v6.99l1.11,8.82h2.88l1.08-8.82v-6.99H983.2Z" transform="translate(-292.938 -3612.59)"/>
</svg>
